<svg xmlns="http://www.w3.org/2000/svg" width="24.941" height="24.941" viewBox="0 0 24.941 24.941"><defs><style>.a{fill:#fff;}</style></defs><path class="a" d="M5.527,146.6l-.868,3.241-3.173.067a12.492,12.492,0,0,1-.092-11.645h0l2.825.518,1.237,2.808a7.442,7.442,0,0,0,.07,5.011Z" transform="translate(0 -131.533)"/><path class="a" d="M273.606,208.176a12.466,12.466,0,0,1-4.445,12.054h0l-3.558-.182-.5-3.144a7.432,7.432,0,0,0,3.2-3.8h-6.668v-4.933h11.978Z" transform="translate(-248.883 -198.035)"/><path class="a" d="M49.3,316.531h0a12.474,12.474,0,0,1-18.791-3.815l4.041-3.308a7.417,7.417,0,0,0,10.687,3.8Z" transform="translate(-29.023 -294.337)"/><path class="a" d="M47.66,2.871,43.62,6.178a7.416,7.416,0,0,0-10.933,3.883L28.625,6.735h0A12.473,12.473,0,0,1,47.66,2.871Z" transform="translate(-27.23)"/></svg>