<?xml version="1.0" standalone="no"?>
<!DOCTYPE svg PUBLIC "-//W3C//DTD SVG 20010904//EN"
 "http://www.w3.org/TR/2001/REC-SVG-20010904/DTD/svg10.dtd">
<svg version="1.0" xmlns="http://www.w3.org/2000/svg"
 width="640.000000pt" height="640.000000pt" viewBox="0 0 640.000000 640.000000"
 preserveAspectRatio="xMidYMid meet">
<metadata>
Created by potrace 1.16, written by Peter Selinger 2001-2019
</metadata>
<g transform="translate(0.000000,640.000000) scale(0.100000,-0.100000)"
fill="#000000" stroke="none">
<path d="M2075 4727 c-3 -6 -4 -192 -3 -412 l3 -400 78 -3 77 -3 0 -449 0
-450 -269 0 c-302 0 -318 -3 -407 -70 -103 -78 -144 -219 -101 -346 20 -59 73
-125 128 -160 90 -56 24 -54 1669 -54 1713 0 1574 7 1661 -80 117 -117 101
-306 -35 -397 -26 -18 -64 -37 -84 -43 -23 -6 -233 -10 -554 -10 l-518 0 0 70
0 70 -210 0 -210 0 0 -30 0 -30 -60 0 -60 0 0 -40 0 -40 -70 0 c-68 0 -70 -1
-70 -25 0 -24 2 -25 70 -25 l70 0 0 -40 0 -40 60 0 60 0 0 -30 0 -30 210 0
210 0 0 70 0 69 538 3 537 3 56 26 c69 33 127 89 160 155 33 67 34 187 2 256
-27 60 -94 127 -158 158 l-50 25 -1560 5 -1560 5 -50 27 c-200 106 -200 374 1
474 35 17 66 19 317 22 l277 3 0 -108 c0 -59 4 -114 8 -121 7 -10 296 -12
1413 -10 l1404 3 0 955 0 955 -78 3 -77 3 0 49 0 50 -1410 0 c-1120 0 -1412
-3 -1415 -13z m2773 -59 l3 -28 -1304 0 c-1181 0 -1305 -2 -1311 -16 -3 -9 -6
-164 -6 -345 l0 -330 -52 3 -53 3 -3 367 -2 367 62 3 c35 2 648 3 1363 3
l1300 0 3 -27z m-398 -988 l0 -910 -1085 0 -1085 0 0 910 0 910 1085 0 1085 0
0 -910z m565 878 c3 -18 4 -427 3 -908 l-3 -875 -257 -3 -258 -2 0 910 0 910
255 0 254 0 6 -32z m-1335 -2733 l0 -115 -165 0 -165 0 0 118 0 117 165 -3
165 -3 0 -114z"/>
<path d="M2424 3147 c-2 -7 -3 -67 -2 -133 l3 -119 125 0 125 0 0 130 0 130
-123 3 c-95 2 -124 0 -128 -11z m208 -122 l3 -85 -82 0 -83 0 0 85 0 85 79 0
80 0 3 -85z"/>
<path d="M2812 3147 c-12 -14 -14 -228 -2 -247 4 -7 49 -10 131 -8 l124 3 0
130 0 130 -121 3 c-92 2 -124 -1 -132 -11z m208 -122 l0 -85 -85 0 -85 0 0 78
c0 43 3 82 7 85 3 4 42 7 85 7 l78 0 0 -85z"/>
<path d="M4714 4381 c-67 -29 -84 -118 -35 -173 25 -28 36 -33 75 -33 95 0
142 104 79 175 -30 33 -82 46 -119 31z"/>
<path d="M4704 4089 c-28 -14 -54 -60 -54 -96 0 -43 34 -91 72 -101 75 -20
138 28 138 105 0 37 -5 50 -31 74 -33 31 -83 38 -125 18z"/>
<path d="M4697 3799 c-22 -13 -47 -61 -47 -93 0 -119 178 -147 208 -33 20 73
-28 137 -101 137 -23 0 -50 -5 -60 -11z"/>
<path d="M1715 2901 c-168 -41 -228 -229 -109 -347 62 -63 169 -87 169 -39 0
15 -9 21 -44 27 -59 10 -106 48 -126 102 -23 59 -13 107 31 155 46 51 89 61
268 61 146 0 170 6 146 35 -10 12 -42 15 -159 14 -80 -1 -159 -4 -176 -8z"/>
<path d="M1633 2233 c-19 -7 -16 -41 4 -45 9 -2 396 -2 860 0 816 2 843 3 843
21 0 11 -9 21 -22 25 -28 7 -1668 7 -1685 -1z"/>
<path d="M1347 2133 c-4 -3 -7 -15 -7 -25 0 -17 19 -18 406 -18 l405 0 -3 23
-3 22 -396 3 c-217 1 -398 -1 -402 -5z"/>
<path d="M2603 2114 c-3 -9 0 -20 8 -25 16 -11 1184 -8 1194 3 4 4 5 14 2 23
-6 13 -74 15 -602 15 -537 0 -596 -2 -602 -16z"/>
<path d="M3040 913 c0 -9 -17 -13 -49 -13 -41 0 -51 -4 -56 -20 -14 -43 1 -57
65 -59 42 -1 62 2 65 11 4 10 37 13 130 14 69 0 128 4 132 7 16 17 -18 22
-133 20 -68 -2 -124 1 -124 5 0 14 -29 48 -30 35z"/>
</g>
</svg>
