<svg xmlns="http://www.w3.org/2000/svg" width="28.256" height="32" viewBox="0 0 28.256 32"><defs><style>.a{fill:#fff;}</style></defs><g transform="translate(-29.952 0)"><path class="a" d="M205.334,187.179a1,1,0,0,0,0-1.416l-.588-.588a1,1,0,0,0-1.416,0l-3.516,3.516a1,1,0,0,0,0,1.416l.588.588a1,1,0,0,0,1.416,0Zm-2.044.718a.066.066,0,0,1-.09,0l-.588-.588a.066.066,0,0,1,0-.09l1.381-1.381a.066.066,0,0,1,.09,0l.588.588a.065.065,0,0,1,0,.09Zm-2.134,2.134a.066.066,0,0,1-.09,0l-.588-.588a.065.065,0,0,1,0-.09l1.429-1.429c.014.016.028.032.043.047l.588.588c.015.015.031.029.047.043Z" transform="translate(-158.97 -173.326)"/><path class="a" d="M175.853,283.512l-.533.533a.469.469,0,1,0,.663.663l.533-.533a.469.469,0,1,0-.663-.663Z" transform="translate(-136.154 -265.662)"/><path class="a" d="M30.83,30.965a3.009,3.009,0,0,0,4.232.013L40.805,25.3A2.056,2.056,0,0,1,43.7,28.228L40.69,31.2a.469.469,0,0,0,.659.667l3.006-2.97a2.994,2.994,0,0,0-4.209-4.26L34.4,30.31a2.064,2.064,0,0,1-2.91-2.928l1.731-1.731a1.19,1.19,0,0,0,1.639-.041l1.217-1.217a1.692,1.692,0,0,0,1.966-.219l5.427-4.9a.469.469,0,0,0-.628-.7l-5.427,4.9a.756.756,0,0,1-1.041-.027l-.008-.008h0l-1.6-1.6h0l-.008-.008a.756.756,0,0,1-.027-1.041L44.806,9.639c.028.033,3.731,3.737,3.765,3.765l0,0-4.1,3.7a.469.469,0,0,0,.628.7l4.5-4.064a1.461,1.461,0,0,0,.957-.427l.586-.586a1.757,1.757,0,0,0,.632.119h.015A6.424,6.424,0,0,0,57.161,2.9a.469.469,0,1,0-.784.513,5.486,5.486,0,0,1-4.587,8.5h-.013a.816.816,0,0,1-.578-.24L46.542,7.014a.815.815,0,0,1-.24-.578A5.487,5.487,0,0,1,54.98,1.961a.469.469,0,1,0,.546-.762A6.424,6.424,0,0,0,45.364,6.438a1.755,1.755,0,0,0,.119.632l-.586.586a1.465,1.465,0,0,0-.426.956L34.038,20.166a1.693,1.693,0,0,0-.219,1.966L32.6,23.349a1.192,1.192,0,0,0-.041,1.639L30.83,26.72a3.005,3.005,0,0,0,0,4.245ZM45.56,8.32l.481-.481,4.333,4.333-.481.481a.537.537,0,0,1-.751.005l-.006-.005L45.56,9.076l0,0A.536.536,0,0,1,45.56,8.32ZM33.265,24.012l1.173-1.173.935.935L34.2,24.947a.254.254,0,0,1-.359,0l-.576-.576a.254.254,0,0,1,0-.359Z" transform="translate(0 0)"/></g></svg>