<svg xmlns="http://www.w3.org/2000/svg" width="34.691" height="34.691" viewBox="0 0 34.691 34.691"><defs><style>.a{fill:none;}.b{fill:#fff;}</style></defs><path class="a" d="M16.644,0A16.644,16.644,0,1,1,0,16.644,16.644,16.644,0,0,1,16.644,0Z" transform="translate(0.616 0.616)"/><g transform="translate(6.496 10.341)"><path class="a" d="M115.313,162.2a1.243,1.243,0,0,1-1.7.446,18.3,18.3,0,0,0-9.631-2.137,23.922,23.922,0,0,0-5,.66,1.243,1.243,0,0,1-.659-2.4,25.885,25.885,0,0,1,5.509-.745,24.265,24.265,0,0,1,5.308.384,17.92,17.92,0,0,1,5.723,2.089,1.243,1.243,0,0,1,.446,1.7Zm1.2-3.684a1.515,1.515,0,0,1-.768-.208c-7.766-4.538-17.84-1.84-17.941-1.812a1.525,1.525,0,0,1-.81-2.94,31.737,31.737,0,0,1,6.758-.914,29.782,29.782,0,0,1,6.511.471,21.981,21.981,0,0,1,7.02,2.562,1.525,1.525,0,0,1-.771,2.841Z" transform="translate(-95.874 -152.618)"/><path class="a" d="M146.07,305.119a1.049,1.049,0,0,1-1.435.376,15.448,15.448,0,0,0-8.131-1.8,20.166,20.166,0,0,0-4.218.557,1.049,1.049,0,0,1-.556-2.024,21.829,21.829,0,0,1,4.651-.629,20.459,20.459,0,0,1,4.481.324,15.121,15.121,0,0,1,4.832,1.763,1.05,1.05,0,0,1,.376,1.436Z" transform="translate(-128.582 -291.49)"/></g><path class="b" d="M17.345,34.691A17.348,17.348,0,0,1,2.945,7.674a.678.678,0,0,1,1.124.756A15.991,15.991,0,1,0,7.931,4.419a.678.678,0,0,1-.8-1.095A17.346,17.346,0,0,1,34.691,17.345,17.345,17.345,0,0,1,17.345,34.691Z" transform="translate(0 0)"/><path class="b" d="M67.027,79.177a.676.676,0,0,1-.5-1.136l.014-.015a.678.678,0,1,1,.483,1.151Z" transform="translate(-61.854 -72.543)"/><path class="b" d="M104.908,154.167a1.924,1.924,0,0,1-.967-.262,17.628,17.628,0,0,0-9.27-2.045,23.326,23.326,0,0,0-4.841.637,1.921,1.921,0,0,1-1.014-3.7,26.362,26.362,0,0,1,5.667-.769,24.944,24.944,0,0,1,5.456.4,18.6,18.6,0,0,1,5.939,2.17,1.923,1.923,0,0,1,.689,2.627h0A1.929,1.929,0,0,1,104.908,154.167Zm-9.538-3.673a18.524,18.524,0,0,1,9.254,2.241.558.558,0,0,0,.284.077.566.566,0,0,0,.287-1.054,17.248,17.248,0,0,0-5.508-2.009,23.583,23.583,0,0,0-5.159-.373,25.317,25.317,0,0,0-5.353.721.566.566,0,0,0,.3,1.09,24.824,24.824,0,0,1,5.154-.683C94.867,150.5,95.115,150.494,95.37,150.494Zm11.812-.627a2.2,2.2,0,0,1-1.11-.3c-7.493-4.379-17.32-1.771-17.418-1.744a2.2,2.2,0,1,1-1.17-4.246,32.343,32.343,0,0,1,6.916-.938,30.479,30.479,0,0,1,6.66.483,22.656,22.656,0,0,1,7.235,2.643,2.2,2.2,0,0,1-1.112,4.1Zm-11.665-4.2a22.33,22.33,0,0,1,11.239,2.728.833.833,0,0,0,.426.116.851.851,0,0,0,.732-.42.847.847,0,0,0-.3-1.159,21.3,21.3,0,0,0-6.8-2.482,29.1,29.1,0,0,0-6.362-.46,30.84,30.84,0,0,0-6.6.89.847.847,0,1,0,.449,1.634A30.251,30.251,0,0,1,95.517,145.667Z" transform="translate(-80.047 -132.955)"/><path class="b" d="M135.843,297a1.727,1.727,0,0,1-.87-.236,14.78,14.78,0,0,0-7.768-1.712,19.678,19.678,0,0,0-4.061.534,1.727,1.727,0,0,1-.914-3.331,22.435,22.435,0,0,1,4.809-.653,21.137,21.137,0,0,1,4.63.336,15.8,15.8,0,0,1,5.047,1.844,1.727,1.727,0,0,1,.619,2.363h0A1.734,1.734,0,0,1,135.843,297Zm-8.05-3.312a15.74,15.74,0,0,1,7.863,1.906.365.365,0,0,0,.187.051.37.37,0,0,0,.322-.185h0a.372.372,0,0,0-.134-.509,14.446,14.446,0,0,0-4.616-1.683,19.782,19.782,0,0,0-4.332-.313,21.353,21.353,0,0,0-4.493.6.372.372,0,1,0,.2.717,20.824,20.824,0,0,1,4.376-.581C127.365,293.687,127.575,293.684,127.793,293.684Z" transform="translate(-112.766 -271.828)"/><path class="b" d="M246.678,448.532a.678.678,0,1,1,0-1.355h.034a.678.678,0,0,1,0,1.355Z" transform="translate(-229.332 -416.878)"/><path class="b" d="M283.878,411.249a.678.678,0,0,1-.124-1.344,12.971,12.971,0,0,0,5.334-2.338.678.678,0,1,1,.81,1.087A14.334,14.334,0,0,1,284,411.237.681.681,0,0,1,283.878,411.249Z" transform="translate(-264.012 -379.828)"/></svg>