<svg xmlns="http://www.w3.org/2000/svg" width="30.124" height="32.503" viewBox="0 0 30.124 32.503">
  <g id="Group_1292" data-name="Group 1292" transform="translate(-223.726 -466.749)">
    <g id="Group_1292-2" data-name="Group 1292" transform="translate(224.031 478.121)">
      <g id="Group_1101" data-name="Group 1101">
        <path id="Path_636" data-name="Path 636" d="M296.131,528.413a184.9,184.9,0,0,1,10.431,20.113c.2.449.848.05.649-.374a189.407,189.407,0,0,0-10.431-20.113.375.375,0,0,0-.649.374Z" transform="translate(-296.075 -527.852)" fill="#e8e8e8" stroke="#fff" stroke-width="0.5"/>
      </g>
    </g>
    <g id="Group_1293" data-name="Group 1293" transform="translate(224 467.206)">
      <g id="Group_1103" data-name="Group 1103">
        <path id="Path_637" data-name="Path 637" d="M296.513,495.289c6.064-3.768,12.3-7.286,18.715-10.481.424-.225.05-.873-.374-.649-6.388,3.194-12.627,6.713-18.715,10.481-.424.274-.05.923.374.649Z" transform="translate(-295.952 -484.113)" fill="#e8e8e8" stroke="#fff" stroke-width="0.5"/>
      </g>
    </g>
    <g id="Group_1294" data-name="Group 1294" transform="translate(242.788 467)">
      <g id="Group_1105" data-name="Group 1105">
        <path id="Path_638" data-name="Path 638" d="M371.283,483.865q4.754,9.994,10.056,19.688c.225.424.873.05.649-.374-3.543-6.463-6.912-13.026-10.056-19.688-.225-.449-.848-.075-.649.374Z" transform="translate(-371.244 -483.287)" fill="#e8e8e8" stroke="#fff" stroke-width="0.5"/>
      </g>
    </g>
    <g id="Group_1295" data-name="Group 1295" transform="translate(234.821 487.159)">
      <g id="Group_1107" data-name="Group 1107">
        <path id="Path_639" data-name="Path 639" d="M339.861,575.859q8.946-5.39,17.692-11.079c.4-.25.025-.9-.374-.649q-8.759,5.689-17.692,11.079c-.4.25-.025.9.374.649Z" transform="translate(-339.316 -564.075)" fill="#e8e8e8" stroke="#fff" stroke-width="0.5"/>
      </g>
    </g>
    <g id="Group_1296" data-name="Group 1296" transform="translate(234.852 475.831)">
      <g id="Group_1109" data-name="Group 1109">
        <path id="Path_640" data-name="Path 640" d="M339.481,519.031a80.614,80.614,0,0,0,.823,14.3c.075.474.8.274.724-.2a78.369,78.369,0,0,1-.8-14.1c.025-.474-.724-.474-.749,0Z" transform="translate(-339.441 -518.675)" fill="#e8e8e8" stroke="#fff" stroke-width="0.5"/>
      </g>
    </g>
    <g id="Group_1297" data-name="Group 1297" transform="translate(234.788 475.323)">
      <g id="Group_1111" data-name="Group 1111">
        <path id="Path_641" data-name="Path 641" d="M339.313,517.255c3.469,2.72,6.937,5.39,10.456,8.035.374.3.749-.349.374-.649q-5.2-3.893-10.306-7.91c-.374-.3-.9.225-.524.524Z" transform="translate(-339.184 -516.642)" fill="#e8e8e8" stroke="#fff" stroke-width="0.5"/>
      </g>
    </g>
    <g id="Group_1298" data-name="Group 1298" transform="translate(235.839 483.282)">
      <g id="Group_1113" data-name="Group 1113">
        <path id="Path_642" data-name="Path 642" d="M344.047,555.89c2.87-2.57,6.613-3.943,9.333-6.713.349-.349-.2-.873-.524-.524-2.72,2.745-6.438,4.142-9.333,6.713-.374.3.175.824.524.524Z" transform="translate(-343.397 -548.538)" fill="#e8e8e8" stroke="#fff" stroke-width="0.5"/>
      </g>
    </g>
    <g id="Group_1299" data-name="Group 1299" transform="translate(224.524 480.74)">
      <g id="Group_1115" data-name="Group 1115">
        <path id="Path_643" data-name="Path 643" d="M298.613,540.208c.8-.4,1.6-.773,2.4-1.173.424-.2.05-.848-.374-.649-.8.4-1.6.774-2.4,1.173-.424.225-.05.848.374.649Z" transform="translate(-298.052 -538.349)" fill="#e8e8e8" stroke="#fff" stroke-width="0.5"/>
      </g>
    </g>
    <g id="Group_1300" data-name="Group 1300" transform="translate(227.102 484.943)">
      <g id="Group_1117" data-name="Group 1117">
        <path id="Path_644" data-name="Path 644" d="M308.935,557.09a13.618,13.618,0,0,1,2.146-1.148c.449-.175.25-.9-.2-.724a16.083,16.083,0,0,0-2.346,1.223c-.374.274,0,.923.4.649Z" transform="translate(-308.381 -555.192)" fill="#e8e8e8" stroke="#fff" stroke-width="0.5"/>
      </g>
    </g>
    <g id="Group_1301" data-name="Group 1301" transform="translate(229.914 490.022)">
      <g id="Group_1119" data-name="Group 1119">
        <path id="Path_645" data-name="Path 645" d="M320.213,577.255c.7-.349,1.4-.7,2.1-1.023.424-.225.05-.848-.374-.649-.7.349-1.4.7-2.1,1.023-.424.2-.05.848.374.649Z" transform="translate(-319.652 -575.544)" fill="#e8e8e8" stroke="#fff" stroke-width="0.5"/>
      </g>
    </g>
    <g id="Group_1302" data-name="Group 1302" transform="translate(231.27 494.18)">
      <g id="Group_1121" data-name="Group 1121">
        <path id="Path_646" data-name="Path 646" d="M325.737,594.651a14.257,14.257,0,0,1,2.47-1.747.375.375,0,0,0-.374-.649,15.71,15.71,0,0,0-2.62,1.872c-.374.324.15.848.524.524Z" transform="translate(-325.084 -592.208)" fill="#e8e8e8" stroke="#fff" stroke-width="0.5"/>
      </g>
    </g>
    <g id="Group_1303" data-name="Group 1303" transform="translate(243.696 470.911)">
      <g id="Group_1123" data-name="Group 1123">
        <path id="Path_647" data-name="Path 647" d="M375.435,500.543a5.648,5.648,0,0,1,1.847-.848.375.375,0,0,0-.2-.724,5.822,5.822,0,0,0-2.046.923c-.374.275,0,.923.4.649Z" transform="translate(-374.881 -498.961)" fill="#e8e8e8" stroke="#fff" stroke-width="0.5"/>
      </g>
    </g>
    <g id="Group_1304" data-name="Group 1304" transform="translate(245.909 474.533)">
      <g id="Group_1125" data-name="Group 1125">
        <path id="Path_648" data-name="Path 648" d="M384.313,515.7c.8-.5,1.6-1,2.371-1.522.4-.25.025-.9-.374-.649-.8.5-1.6,1-2.371,1.522-.424.274-.05.923.374.649Z" transform="translate(-383.752 -513.475)" fill="#e8e8e8" stroke="#fff" stroke-width="0.5"/>
      </g>
    </g>
    <g id="Group_1305" data-name="Group 1305" transform="translate(248.444 480.066)">
      <g id="Group_1127" data-name="Group 1127">
        <path id="Path_649" data-name="Path 649" d="M394.48,537.458c.848-.374,1.722-.749,2.57-1.123.449-.2.05-.848-.374-.649-.848.374-1.722.749-2.57,1.123-.449.2-.05.848.374.649Z" transform="translate(-393.908 -535.649)" fill="#e8e8e8" stroke="#fff" stroke-width="0.5"/>
      </g>
    </g>
    <g id="Group_1306" data-name="Group 1306" transform="translate(250.198 482.852)">
      <g id="Group_1129" data-name="Group 1129">
        <path id="Path_650" data-name="Path 650" d="M401.578,549.181a11.429,11.429,0,0,1,2.246-1.672c.424-.225.05-.873-.374-.649a11.905,11.905,0,0,0-2.4,1.772.38.38,0,0,0,.524.549Z" transform="translate(-400.938 -546.813)" fill="#e8e8e8" stroke="#fff" stroke-width="0.5"/>
      </g>
    </g>
    <g id="Group_1307" data-name="Group 1307" transform="translate(237.421 495.096)">
      <g id="Group_1131" data-name="Group 1131">
        <path id="Path_651" data-name="Path 651" d="M349.8,596.435a14.885,14.885,0,0,1,1.547,2.92c.175.449.9.25.724-.2a14.824,14.824,0,0,0-1.622-3.119c-.274-.374-.923,0-.649.4Z" transform="translate(-349.734 -595.881)" fill="#e8e8e8" stroke="#fff" stroke-width="0.5"/>
      </g>
    </g>
    <g id="Group_1308" data-name="Group 1308" transform="translate(241.258 493.018)">
      <g id="Group_1133" data-name="Group 1133">
        <path id="Path_652" data-name="Path 652" d="M365.16,588.113c.474.848.923,1.672,1.4,2.52.225.424.873.05.649-.374-.474-.849-.923-1.672-1.4-2.52-.225-.424-.873-.05-.649.374Z" transform="translate(-365.113 -587.552)" fill="#e8e8e8" stroke="#fff" stroke-width="0.5"/>
      </g>
    </g>
    <g id="Group_1309" data-name="Group 1309" transform="translate(245.675 489.849)">
      <g id="Group_1135" data-name="Group 1135">
        <path id="Path_653" data-name="Path 653" d="M382.86,575.413l1.5,2.7c.225.424.873.05.649-.374l-1.5-2.7c-.225-.424-.873-.05-.649.374Z" transform="translate(-382.813 -574.852)" fill="#e8e8e8" stroke="#fff" stroke-width="0.5"/>
      </g>
    </g>
    <g id="Group_1310" data-name="Group 1310" transform="translate(249.652 487.478)">
      <g id="Group_1137" data-name="Group 1137">
        <path id="Path_654" data-name="Path 654" d="M398.787,565.913c.4.948.8,1.9,1.223,2.82.2.449.823.05.649-.374-.4-.948-.8-1.9-1.223-2.82-.2-.424-.848-.05-.649.374Z" transform="translate(-398.749 -565.352)" fill="#e8e8e8" stroke="#fff" stroke-width="0.5"/>
      </g>
    </g>
    <g id="Group_1311" data-name="Group 1311" transform="translate(227 473.994)">
      <g id="Group_1139" data-name="Group 1139">
        <path id="Path_655" data-name="Path 655" d="M308.031,511.861c.474.774.923,1.547,1.4,2.3.25.424.9.025.649-.374-.474-.774-.923-1.547-1.4-2.3-.25-.4-.9-.025-.649.374Z" transform="translate(-307.975 -511.316)" fill="#e8e8e8" stroke="#fff" stroke-width="0.5"/>
      </g>
    </g>
    <g id="Group_1312" data-name="Group 1312" transform="translate(231.31 471.467)">
      <g id="Group_1141" data-name="Group 1141">
        <path id="Path_656" data-name="Path 656" d="M325.283,501.765l1.348,2.994c.2.449.848.05.649-.374l-1.348-2.994c-.225-.449-.848-.075-.649.374Z" transform="translate(-325.244 -501.187)" fill="#e8e8e8" stroke="#fff" stroke-width="0.5"/>
      </g>
    </g>
    <g id="Group_1313" data-name="Group 1313" transform="translate(235.15 469.114)">
      <g id="Group_1143" data-name="Group 1143">
        <path id="Path_657" data-name="Path 657" d="M340.7,492.294a10.268,10.268,0,0,1,1.547,2.92c.15.449.873.25.724-.2a10.193,10.193,0,0,0-1.622-3.094c-.275-.374-.923-.025-.649.374Z" transform="translate(-340.634 -491.76)" fill="#e8e8e8" stroke="#fff" stroke-width="0.5"/>
      </g>
    </g>
    <g id="Group_1314" data-name="Group 1314" transform="translate(239.317 467.182)">
      <g id="Group_1145" data-name="Group 1145">
        <path id="Path_658" data-name="Path 658" d="M357.4,484.561c.524.8,1.023,1.572,1.547,2.371.25.4.9.025.649-.374-.524-.8-1.023-1.572-1.547-2.371-.274-.4-.923-.025-.649.374Z" transform="translate(-357.334 -484.016)" fill="#e8e8e8" stroke="#fff" stroke-width="0.5"/>
      </g>
    </g>
  </g>
</svg>
