<svg xmlns="http://www.w3.org/2000/svg" width="419.09" height="288.677" viewBox="0 0 419.09 288.677"><defs><style>.a{fill:#161616;}</style></defs><g transform="translate(12.486 66.433)"><path class="a" d="M223.349,368.066c5.885-4.794,13.852-5.488,21.125-4.166,7.769,1.388,14.844,5.124,22.018,8.265,7.405,3.273,14.943,5.62,23.076,6.017a81.116,81.116,0,0,0,24.068-2.711c16.431-4.132,31.506-12.067,47.276-18.051a114.41,114.41,0,0,1,24.464-6.81,54.714,54.714,0,0,1,13.753-.331,95.583,95.583,0,0,1,12.893,2.546,231.469,231.469,0,0,0,28.465,5.554,197.954,197.954,0,0,0,30.018,1.256c.628-.033.628-1.025,0-.992a194.335,194.335,0,0,1-54.02-5.686c-8.43-2.116-16.794-4.3-25.555-3.868-8.5.43-16.894,2.678-24.894,5.422-16.034,5.521-31.109,13.621-47.375,18.547a90.256,90.256,0,0,1-25.489,4.232,61.493,61.493,0,0,1-25.092-5.521c-7.934-3.438-15.7-7.7-24.332-9.025-7.339-1.124-15.174-.231-21.092,4.6-.5.43.2,1.157.694.727Z" transform="translate(-222.484 -349.035)"/></g><g transform="translate(191.165 46.249)"><path class="a" d="M763.2,296.979c22.911,9.885,48.929,8.232,72.368,1.058,12.7-3.9,25.324-9.125,38.845-9.091,13.621.033,26.547,4.794,39.87,6.91,12.1,1.917,25.423,1.686,35.8-5.587.529-.364.033-1.223-.5-.86-9.587,6.711-21.753,7.306-32.994,5.785-12.728-1.719-24.96-6.149-37.821-7.075s-24.993,2.942-37.06,6.91c-12.034,3.934-24.2,7.009-36.862,7.736-14.017.827-28.2-1.058-41.126-6.645-.6-.264-1.091.6-.529.86Z" transform="translate(-762.955 -287.981)"/></g><g transform="translate(0 116.24)"><path class="a" d="M185.438,521.116a51.135,51.135,0,0,1,24.663-9.191,49.447,49.447,0,0,1,13.257.5,83.979,83.979,0,0,1,13.224,3.835c8.034,2.777,16,4.893,24.464,2.942,7.306-1.686,13.918-5.488,20.4-9.091,7.637-4.265,15.571-8.629,24.431-9.422.628-.066.628-1.058,0-.992-15.8,1.422-27.671,13.29-42.416,17.819a32.549,32.549,0,0,1-11.538,1.521c-4.794-.3-9.455-1.785-13.951-3.339a99.222,99.222,0,0,0-13.819-4.132,50.613,50.613,0,0,0-12.431-.727,51.8,51.8,0,0,0-26.779,9.455c-.529.331-.033,1.19.5.826Z" transform="translate(-184.716 -499.69)"/></g><g transform="translate(87.534 126.43)"><path class="a" d="M450.32,554.444c12.86-13.588,31.771-19.142,50.053-19.307a144.68,144.68,0,0,1,31.539,3.637c9.852,2.083,19.406,4.794,29.589,3.438,10.645-1.422,20.6-5.984,30.118-10.778.562-.3.066-1.157-.5-.86-9.058,4.562-18.48,8.893-28.564,10.48a49.776,49.776,0,0,1-15.505-.1c-5.223-.826-10.315-2.215-15.505-3.306-18.91-3.967-39.044-5.653-57.623.793a60.625,60.625,0,0,0-24.3,15.274c-.43.5.265,1.19.694.727Z" transform="translate(-449.491 -530.513)"/></g><g transform="translate(241.257 145.451)"><path class="a" d="M914.812,602.844c5.389,1.884,10.91.132,15.836-2.215,5.521-2.645,10.711-5.918,16.365-8.265s11.736-3.934,17.885-3.174c5.62.694,10.811,3.207,15.737,5.885,4.661,2.546,9.257,5.323,14.216,7.273a45.3,45.3,0,0,0,17.39,3.042c12.133-.264,22.448-6.314,33.523-10.414,10.348-3.835,24.134-5.554,32.432,3.438.43.463,1.124-.231.694-.694-6.513-7.042-16.894-7.835-25.82-5.951-11.637,2.446-21.687,9.554-33.391,11.835a44.8,44.8,0,0,1-18.976-.43c-5.752-1.389-10.91-4.1-16.067-6.976-4.661-2.612-9.389-5.323-14.513-6.876a30.529,30.529,0,0,0-16.266-.331c-6.579,1.62-12.629,4.827-18.547,8.067-6.116,3.306-13.191,7.339-20.3,4.86-.529-.232-.793.727-.2.926Z" transform="translate(-914.473 -588.05)"/></g><g transform="translate(328.176 163.267)"><path class="a" d="M1177.854,654.853c13.687.826,24.96-8.463,37.887-11.273a27.807,27.807,0,0,1,10.579-.5,24.507,24.507,0,0,1,8.695,3.471c4.661,2.843,9.191,6.513,14.877,6.909,6.91.463,13.026-3.835,18.183-7.868.5-.4-.2-1.091-.694-.694-5.025,3.9-11.042,8.166-17.786,7.538-5.852-.529-10.48-4.761-15.406-7.5-11.34-6.348-23.473-1.355-34.349,3.438-6.976,3.042-14.216,5.984-21.952,5.521-.661-.066-.661.926-.033.959Z" transform="translate(-1177.387 -641.939)"/></g><g transform="translate(15.744 222.242)"><path class="a" d="M233.185,837.476a19.414,19.414,0,0,1,18.282-4.6c6.678,1.818,10.976,7.571,16.332,11.538,10.678,7.9,25.225,6.645,36.961,1.984,13.852-5.488,25.39-15.406,39.209-20.993,6.744-2.744,14.05-4.5,21.39-4,7.141.5,13.224,3.57,18.877,7.736,5.62,4.133,10.91,9.025,17.489,11.637a25.37,25.37,0,0,0,21.588-1.488c.562-.3.066-1.157-.5-.86a24.567,24.567,0,0,1-21.853.959c-5.885-2.612-10.711-6.976-15.836-10.811-5.257-3.934-10.844-7.009-17.456-7.934a45.121,45.121,0,0,0-20.2,2.38c-14.117,4.728-25.754,14.48-39.143,20.729-12.364,5.786-28.266,8.5-40-.2-5.852-4.331-10.447-10.513-17.985-11.968a20.441,20.441,0,0,0-17.852,5.19c-.463.43.231,1.157.694.694Z" transform="translate(-232.338 -820.327)"/></g><g transform="translate(142.873 252.049)"><path class="a" d="M617.615,916.277a29.534,29.534,0,0,1,18.447-4.695c5.951.5,11.571,2.711,17.026,4.926,5.29,2.149,10.645,4.4,16.332,5.323a39.12,39.12,0,0,0,17.687-1.521c6.843-2.116,13.191-5.488,19.439-8.893.562-.3.066-1.157-.5-.86-11.439,6.182-24,12.7-37.424,10.116-11.207-2.149-21.059-9.091-32.6-10.083a30.178,30.178,0,0,0-18.943,4.827c-.5.364,0,1.223.529.86Z" transform="translate(-616.881 -910.488)"/></g><g transform="translate(267.561 247.97)"><path class="a" d="M994.885,930.433a59.444,59.444,0,0,1,25.621-14.083,57.876,57.876,0,0,1,14.877-1.851c5.587.066,11.141.959,16.7,1.488a67.268,67.268,0,0,0,31.208-4.728c9.62-3.736,18.679-10.216,29.027-11.8,12.1-1.851,21.456,6.182,29.159,14.414.43.463,1.124-.231.694-.694-6.347-6.777-13.819-13.786-23.473-14.877-10.579-1.19-20.2,5.025-29.39,9.29-10.579,4.926-21.985,8.3-33.721,7.637-5.852-.331-11.637-1.389-17.522-1.686a57.868,57.868,0,0,0-14.91,1.124,60.065,60.065,0,0,0-28.96,15.009c-.463.5.231,1.19.694.76Z" transform="translate(-994.038 -898.15)"/></g><g transform="translate(74.672 64.041)"><path class="a" d="M410.755,349.106c9.257,7.174,21.324,4,31.407.694a129.672,129.672,0,0,1,38.383-7.009.5.5,0,0,0,0-.992,122.8,122.8,0,0,0-35.738,6.083c-10.48,3.405-23.506,8.2-33.357.529-.5-.4-1.19.3-.694.694Z" transform="translate(-410.584 -341.8)"/></g><g transform="translate(163.501 0)"><path class="a" d="M679.746,159.332c11.174-.827,21.952-3.934,32.762-6.546,11.24-2.744,22.514-4.562,34.118-3.306,11.7,1.256,23.043,4.794,34.515,7.306a125.844,125.844,0,0,0,33.556,3.008,120.18,120.18,0,0,0,37.159-7.868c.6-.231.331-1.19-.264-.959a120.653,120.653,0,0,1-67.773,5.356c-11.273-2.347-22.315-5.785-33.721-7.438-11.009-1.587-21.753-.694-32.6,1.686-12.563,2.744-24.894,6.777-37.754,7.736-.628.1-.628,1.091,0,1.025Z" transform="translate(-679.275 -148.087)"/></g><g transform="translate(342.299 90.291)"><path class="a" d="M1220.7,425c9.653-3.57,19.671,1.521,29.324,2.446a47.375,47.375,0,0,0,15.406-1.19c4.959-1.19,9.786-2.942,14.844-3.7,5.422-.826,11.207-.5,15.9,2.579.529.364,1.025-.5.5-.86-8.331-5.422-18.514-2.513-27.307-.066a53.68,53.68,0,0,1-16.794,2.446c-5.488-.2-10.744-1.719-16.1-2.843-5.323-1.091-10.811-1.686-16,.231-.628.2-.364,1.157.231.959Z" transform="translate(-1220.107 -421.201)"/></g><g transform="translate(5.033 189.782)"><path class="a" d="M200.819,726.757c8.4-7.472,20.233-.86,29.556.562,10.778,1.653,21.555-1.322,31.837-4.2a.5.5,0,0,0-.264-.959c-11.373,3.174-23.142,6.314-34.944,3.5-8.629-2.05-19.175-6.414-26.911.4-.463.4.231,1.091.727.694Z" transform="translate(-199.94 -722.142)"/></g><g transform="translate(110.796 281.742)"><g transform="translate(0 0)"><path class="a" d="M520.695,1005.789a12.4,12.4,0,0,1,10.976-4.364,24.778,24.778,0,0,1,6.744,2.347,42.775,42.775,0,0,0,5.554,1.984,41.417,41.417,0,0,0,24.7-.859c.6-.2.331-1.157-.264-.959a40.629,40.629,0,0,1-27.473-.231c-3.835-1.422-7.405-3.7-11.67-3.372a13.55,13.55,0,0,0-9.29,4.728c-.4.529.331,1.223.727.727Z" transform="translate(-519.853 -1000.302)"/></g></g><g transform="translate(167.297 280.947)"><g transform="translate(0 0)"><path class="a" d="M691.366,1001.469a64.65,64.65,0,0,1,18.48-2.579.5.5,0,0,0,0-.992,66.665,66.665,0,0,0-18.745,2.612c-.6.2-.364,1.157.264.959Z" transform="translate(-690.757 -997.897)"/></g></g><g transform="translate(175.569 26.599)"><path class="a" d="M715.984,229.489a204.749,204.749,0,0,1,16.794,14.447c.463.43,1.157-.264.694-.694a210.068,210.068,0,0,0-16.993-14.579c-.5-.43-.992.43-.5.827Z" transform="translate(-715.779 -228.545)"/></g><g transform="translate(117.482 34.986)"><path class="a" d="M541.044,263.893c.562-3.108,1.157-6.215,1.719-9.356.132-.628-.827-.893-.959-.264-.562,3.108-1.157,6.215-1.719,9.356-.1.628.86.893.959.264Z" transform="translate(-540.078 -253.914)"/></g></svg>