<svg xmlns="http://www.w3.org/2000/svg" width="278.009" height="210.615" viewBox="0 0 278.009 210.615">
  <g id="growth_2_bw" data-name="growth 2 bw" transform="translate(-184.716 -144.829)">
    <g id="background" transform="translate(184.716 144.829)">
      <g id="Grupo_2" data-name="Grupo 2" transform="translate(8.283 44.069)">
        <g id="Grupo_1" data-name="Grupo 1">
          <path id="Caminho_3" data-name="Caminho 3" d="M223.058,361.659c3.9-3.18,9.189-3.641,14.014-2.763,5.154.921,9.847,3.4,14.606,5.483a42.757,42.757,0,0,0,15.308,3.991,53.809,53.809,0,0,0,15.966-1.8c10.9-2.741,20.9-8,31.361-11.974a75.9,75.9,0,0,1,16.229-4.518,36.3,36.3,0,0,1,9.123-.219,63.4,63.4,0,0,1,8.553,1.689,153.548,153.548,0,0,0,18.882,3.684,131.313,131.313,0,0,0,19.913.833c.417-.022.417-.68,0-.658a128.915,128.915,0,0,1-35.835-3.772c-5.592-1.4-11.141-2.851-16.952-2.566a60.94,60.94,0,0,0-16.514,3.6c-10.636,3.662-20.637,9.035-31.427,12.3a59.873,59.873,0,0,1-16.909,2.807,40.792,40.792,0,0,1-16.645-3.662c-5.263-2.281-10.417-5.11-16.141-5.987-4.869-.746-10.066-.154-13.992,3.048-.329.285.132.768.461.482Z" transform="translate(-222.484 -349.035)" fill="#fff"/>
        </g>
      </g>
      <g id="Grupo_4" data-name="Grupo 4" transform="translate(126.812 30.68)">
        <g id="Grupo_3" data-name="Grupo 3">
          <path id="Caminho_4" data-name="Caminho 4" d="M763.119,293.95c15.2,6.557,32.457,5.461,48.006.7,8.421-2.588,16.8-6.053,25.769-6.031,9.035.022,17.61,3.18,26.448,4.584,8.027,1.272,16.865,1.118,23.751-3.706.351-.241.022-.811-.329-.57-6.36,4.452-14.43,4.847-21.887,3.838-8.443-1.14-16.558-4.079-25.089-4.693s-16.58,1.952-24.584,4.584c-7.983,2.61-16.053,4.649-24.453,5.132a59.8,59.8,0,0,1-27.282-4.408c-.395-.175-.724.395-.351.57Z" transform="translate(-762.955 -287.981)" fill="#fff"/>
        </g>
      </g>
      <g id="Grupo_6" data-name="Grupo 6" transform="translate(0 77.109)">
        <g id="Grupo_5" data-name="Grupo 5">
          <path id="Caminho_5" data-name="Caminho 5" d="M185.195,513.9a33.921,33.921,0,0,1,16.36-6.1,32.8,32.8,0,0,1,8.794.329,55.706,55.706,0,0,1,8.772,2.544c5.329,1.842,10.614,3.246,16.229,1.952,4.847-1.119,9.233-3.641,13.531-6.031,5.066-2.829,10.329-5.724,16.207-6.25.417-.044.417-.7,0-.658-10.483.943-18.356,8.816-28.137,11.821a21.593,21.593,0,0,1-7.654,1.009,35.407,35.407,0,0,1-9.255-2.215,65.82,65.82,0,0,0-9.167-2.741,33.576,33.576,0,0,0-8.246-.482,34.365,34.365,0,0,0-17.764,6.272c-.351.219-.022.789.329.548Z" transform="translate(-184.716 -499.69)" fill="#fff"/>
        </g>
      </g>
      <g id="Grupo_8" data-name="Grupo 8" transform="translate(58.067 83.869)">
        <g id="Grupo_7" data-name="Grupo 7">
          <path id="Caminho_6" data-name="Caminho 6" d="M450.041,546.388c8.531-9.014,21.075-12.7,33.2-12.808a95.976,95.976,0,0,1,20.922,2.412c6.535,1.382,12.873,3.18,19.628,2.281,7.062-.943,13.663-3.969,19.979-7.149.373-.2.044-.768-.329-.57-6.009,3.026-12.259,5.9-18.948,6.952a33.018,33.018,0,0,1-10.286-.066c-3.465-.548-6.842-1.469-10.286-2.193-12.544-2.632-25.9-3.75-38.225.526a40.217,40.217,0,0,0-16.119,10.132c-.285.329.175.789.461.482Z" transform="translate(-449.491 -530.513)" fill="#fff"/>
        </g>
      </g>
      <g id="Grupo_10" data-name="Grupo 10" transform="translate(160.041 96.487)">
        <g id="Grupo_9" data-name="Grupo 9">
          <path id="Caminho_7" data-name="Caminho 7" d="M914.7,597.864c3.575,1.25,7.237.088,10.5-1.469,3.662-1.755,7.106-3.926,10.856-5.483a23.579,23.579,0,0,1,11.865-2.105c3.728.461,7.171,2.127,10.439,3.9a84.833,84.833,0,0,0,9.43,4.825,30.049,30.049,0,0,0,11.536,2.018c8.049-.175,14.891-4.189,22.238-6.908,6.864-2.544,16.009-3.684,21.514,2.281.285.307.746-.154.461-.461-4.32-4.671-11.207-5.2-17.128-3.948-7.72,1.623-14.387,6.338-22.15,7.851a29.717,29.717,0,0,1-12.588-.285,42.558,42.558,0,0,1-10.658-4.627,49.556,49.556,0,0,0-9.628-4.562,20.253,20.253,0,0,0-10.79-.219c-4.364,1.075-8.378,3.2-12.3,5.351-4.057,2.193-8.75,4.869-13.465,3.224-.351-.154-.526.482-.132.614Z" transform="translate(-914.473 -588.05)" fill="#fff"/>
        </g>
      </g>
      <g id="Grupo_12" data-name="Grupo 12" transform="translate(217.7 108.305)">
        <g id="Grupo_11" data-name="Grupo 11">
          <path id="Caminho_8" data-name="Caminho 8" d="M1177.7,650.506c9.079.548,16.558-5.614,25.133-7.478a18.447,18.447,0,0,1,7.018-.329,16.257,16.257,0,0,1,5.768,2.3c3.092,1.886,6.1,4.32,9.869,4.583,4.584.307,8.641-2.544,12.062-5.219.329-.263-.132-.724-.461-.461-3.333,2.588-7.325,5.417-11.8,5-3.882-.351-6.952-3.158-10.22-4.978-7.522-4.211-15.571-.9-22.786,2.281-4.627,2.018-9.43,3.969-14.562,3.662-.438-.044-.438.614-.022.636Z" transform="translate(-1177.387 -641.939)" fill="#fff"/>
        </g>
      </g>
      <g id="Grupo_14" data-name="Grupo 14" transform="translate(10.444 147.427)">
        <g id="Grupo_13" data-name="Grupo 13">
          <path id="Caminho_9" data-name="Caminho 9" d="M232.9,831.7a12.878,12.878,0,0,1,12.128-3.048c4.43,1.206,7.281,5.022,10.834,7.654,7.084,5.241,16.733,4.408,24.519,1.316,9.189-3.641,16.843-10.22,26.01-13.926a32.2,32.2,0,0,1,14.189-2.654c4.737.329,8.772,2.369,12.522,5.132,3.728,2.741,7.237,5.987,11.6,7.72a16.829,16.829,0,0,0,14.321-.987c.373-.2.044-.768-.329-.57a16.3,16.3,0,0,1-14.5.636c-3.9-1.732-7.106-4.627-10.5-7.171a25.046,25.046,0,0,0-11.579-5.263,29.931,29.931,0,0,0-13.4,1.579c-9.364,3.136-17.084,9.606-25.966,13.751-8.2,3.838-18.751,5.636-26.536-.132-3.882-2.873-6.93-6.974-11.93-7.939a13.56,13.56,0,0,0-11.843,3.443c-.307.285.154.767.461.46Z" transform="translate(-232.338 -820.327)" fill="#fff"/>
        </g>
      </g>
      <g id="Grupo_16" data-name="Grupo 16" transform="translate(94.777 167.2)">
        <g id="Grupo_15" data-name="Grupo 15">
          <path id="Caminho_10" data-name="Caminho 10" d="M617.368,914.328a19.591,19.591,0,0,1,12.237-3.114c3.948.329,7.676,1.8,11.294,3.268a50.9,50.9,0,0,0,10.834,3.531A25.952,25.952,0,0,0,663.466,917a71.333,71.333,0,0,0,12.9-5.9c.373-.2.044-.768-.329-.57-7.588,4.1-15.922,8.421-24.826,6.711-7.435-1.426-13.97-6.031-21.624-6.689a20.019,20.019,0,0,0-12.566,3.2c-.329.241,0,.812.351.57Z" transform="translate(-616.881 -910.488)" fill="#fff"/>
        </g>
      </g>
      <g id="Grupo_18" data-name="Grupo 18" transform="translate(177.49 164.494)">
        <g id="Grupo_17" data-name="Grupo 17">
          <path id="Caminho_11" data-name="Caminho 11" d="M994.6,919.566a39.432,39.432,0,0,1,17-9.343,38.4,38.4,0,0,1,9.869-1.228c3.706.044,7.391.636,11.075.987a44.624,44.624,0,0,0,20.7-3.136c6.382-2.478,12.391-6.777,19.255-7.829,8.027-1.228,14.233,4.1,19.343,9.562.285.307.746-.154.461-.461-4.211-4.5-9.167-9.145-15.571-9.869-7.018-.79-13.4,3.333-19.5,6.162-7.018,3.268-14.584,5.5-22.369,5.066-3.882-.219-7.72-.921-11.623-1.119a38.388,38.388,0,0,0-9.891.746,39.844,39.844,0,0,0-19.211,9.956c-.307.329.154.79.461.5Z" transform="translate(-994.038 -898.15)" fill="#fff"/>
        </g>
      </g>
      <g id="Grupo_20" data-name="Grupo 20" transform="translate(49.535 42.483)">
        <g id="Grupo_19" data-name="Grupo 19">
          <path id="Caminho_12" data-name="Caminho 12" d="M410.7,346.647c6.141,4.759,14.145,2.654,20.834.461a86.019,86.019,0,0,1,25.462-4.649.329.329,0,0,0,0-.658,81.457,81.457,0,0,0-23.707,4.035c-6.952,2.259-15.593,5.439-22.128.351-.329-.263-.79.2-.461.461Z" transform="translate(-410.584 -341.8)" fill="#fff"/>
        </g>
      </g>
      <g id="Grupo_22" data-name="Grupo 22" transform="translate(108.46 0)">
        <g id="Grupo_21" data-name="Grupo 21">
          <path id="Caminho_13" data-name="Caminho 13" d="M679.588,155.546c7.413-.548,14.562-2.61,21.733-4.342,7.456-1.82,14.935-3.026,22.633-2.193,7.763.833,15.286,3.18,22.9,4.847a83.48,83.48,0,0,0,22.26,2,79.724,79.724,0,0,0,24.65-5.22c.395-.154.219-.79-.176-.636a80.037,80.037,0,0,1-44.958,3.553c-7.478-1.557-14.8-3.838-22.369-4.934a59.829,59.829,0,0,0-21.624,1.118c-8.334,1.82-16.514,4.5-25.045,5.132-.417.066-.417.724,0,.68Z" transform="translate(-679.275 -148.087)" fill="#fff"/>
        </g>
      </g>
      <g id="Grupo_24" data-name="Grupo 24" transform="translate(227.069 59.896)">
        <g id="Grupo_23" data-name="Grupo 23">
          <path id="Caminho_14" data-name="Caminho 14" d="M1220.5,423.723c6.4-2.369,13.049,1.009,19.453,1.623a31.427,31.427,0,0,0,10.22-.789c3.29-.79,6.491-1.952,9.847-2.456,3.6-.548,7.435-.329,10.549,1.711.351.241.68-.329.329-.57-5.527-3.6-12.281-1.667-18.115-.044a35.609,35.609,0,0,1-11.141,1.623c-3.641-.132-7.127-1.14-10.68-1.886-3.531-.724-7.171-1.118-10.614.154-.417.132-.241.768.153.636Z" transform="translate(-1220.107 -421.201)" fill="#fff"/>
        </g>
      </g>
      <g id="Grupo_26" data-name="Grupo 26" transform="translate(3.339 125.895)">
        <g id="Grupo_25" data-name="Grupo 25">
          <path id="Caminho_15" data-name="Caminho 15" d="M200.523,725.2c5.57-4.956,13.422-.57,19.606.373,7.149,1.1,14.3-.877,21.119-2.785a.33.33,0,0,0-.175-.636c-7.544,2.105-15.352,4.189-23.181,2.325-5.724-1.36-12.72-4.255-17.852.263-.307.263.154.724.482.461Z" transform="translate(-199.94 -722.142)" fill="#fff"/>
        </g>
      </g>
      <g id="Grupo_28" data-name="Grupo 28" transform="translate(73.498 186.897)">
        <g id="Grupo_27" data-name="Grupo 27" transform="translate(0 0)">
          <path id="Caminho_16" data-name="Caminho 16" d="M520.411,1003.942a8.228,8.228,0,0,1,7.281-2.895,16.438,16.438,0,0,1,4.474,1.557,28.373,28.373,0,0,0,3.684,1.316,27.474,27.474,0,0,0,16.382-.57c.395-.132.219-.768-.175-.636a26.952,26.952,0,0,1-18.224-.154c-2.544-.943-4.913-2.456-7.742-2.237a8.989,8.989,0,0,0-6.162,3.136c-.263.351.219.811.482.482Z" transform="translate(-519.853 -1000.302)" fill="#fff"/>
        </g>
      </g>
      <g id="Grupo_30" data-name="Grupo 30" transform="translate(110.978 186.37)">
        <g id="Grupo_29" data-name="Grupo 29" transform="translate(0 0)">
          <path id="Caminho_17" data-name="Caminho 17" d="M691.161,1000.266a42.884,42.884,0,0,1,12.259-1.711.329.329,0,0,0,0-.658,44.226,44.226,0,0,0-12.435,1.733c-.395.132-.241.768.175.636Z" transform="translate(-690.757 -997.897)" fill="#fff"/>
        </g>
      </g>
      <g id="Grupo_32" data-name="Grupo 32" transform="translate(116.466 17.645)">
        <g id="Grupo_31" data-name="Grupo 31">
          <path id="Caminho_18" data-name="Caminho 18" d="M715.915,229.171a135.827,135.827,0,0,1,11.141,9.584c.307.285.768-.175.461-.461a139.35,139.35,0,0,0-11.272-9.671c-.329-.285-.658.285-.329.548Z" transform="translate(-715.779 -228.545)" fill="#fff"/>
        </g>
      </g>
      <g id="Grupo_34" data-name="Grupo 34" transform="translate(77.934 23.209)">
        <g id="Grupo_33" data-name="Grupo 33">
          <path id="Caminho_19" data-name="Caminho 19" d="M540.719,260.534c.373-2.061.768-4.123,1.14-6.206.088-.417-.548-.592-.636-.175-.373,2.061-.768,4.123-1.14,6.206-.066.417.57.592.636.175Z" transform="translate(-540.078 -253.914)" fill="#fff"/>
        </g>
      </g>
    </g>
    <g id="details" transform="translate(215.243 145.088)">
      <circle id="Elipse_1" data-name="Elipse 1" cx="1.272" cy="1.272" r="1.272" transform="translate(188.485 41.423)" fill="#fff"/>
      <circle id="Elipse_2" data-name="Elipse 2" cx="1.513" cy="1.513" r="1.513" transform="translate(22.053 145.989)" fill="#fff"/>
      <circle id="Elipse_3" data-name="Elipse 3" cx="3.465" cy="3.465" r="3.465" transform="translate(12.776 4.996)" fill="#fff"/>
      <circle id="Elipse_4" data-name="Elipse 4" cx="1.162" cy="1.162" r="1.162" transform="translate(22.031 12.957)" fill="#fff"/>
      <circle id="Elipse_5" data-name="Elipse 5" cx="2.588" cy="2.588" r="2.588" transform="translate(87.012 205.18)" fill="#fff"/>
      <circle id="Elipse_6" data-name="Elipse 6" cx="2.281" cy="2.281" r="2.281" transform="translate(207.587 11.882)" fill="#fff"/>
      <circle id="Elipse_7" data-name="Elipse 7" cx="1.404" cy="1.404" r="1.404" transform="translate(211.381 8.614)" fill="#fff"/>
      <circle id="Elipse_8" data-name="Elipse 8" cx="3.465" cy="3.465" r="3.465" transform="translate(16.263 1.355)" fill="#fff"/>
      <circle id="Elipse_9" data-name="Elipse 9" cx="1.733" cy="1.733" r="1.733" transform="translate(16.263 147.59)" fill="#fff"/>
      <circle id="Elipse_10" data-name="Elipse 10" cx="1.535" cy="1.535" r="1.535" transform="translate(77.362 202.263)" fill="#fff"/>
      <circle id="Elipse_11" data-name="Elipse 11" cx="3.641" cy="3.641" r="3.641" transform="translate(197.806 1.333)" fill="#fff"/>
      <circle id="Elipse_12" data-name="Elipse 12" cx="0.79" cy="0.79" r="0.79" transform="translate(140.72 62.169)" fill="#fff"/>
      <g id="Grupo_36" data-name="Grupo 36" transform="translate(132.034 16.528)">
        <g id="Grupo_35" data-name="Grupo 35">
          <path id="Caminho_20" data-name="Caminho 20" d="M857.775,218.808c-.461,1.075-.9,2.171-1.36,3.246-.153.395.483.57.636.175.461-1.075.9-2.171,1.36-3.246.154-.395-.482-.57-.636-.175Z" transform="translate(-856.392 -218.585)" fill="#fff"/>
        </g>
      </g>
      <g id="Grupo_38" data-name="Grupo 38" transform="translate(133.209 16.715)">
        <g id="Grupo_37" data-name="Grupo 37">
          <path id="Caminho_21" data-name="Caminho 21" d="M861.849,220a8.723,8.723,0,0,1,1.864,2.917c.154.395.789.219.636-.175a10.215,10.215,0,0,0-2.04-3.2c-.285-.307-.768.154-.461.461Z" transform="translate(-861.75 -219.438)" fill="#fff"/>
        </g>
      </g>
      <g id="Grupo_40" data-name="Grupo 40" transform="translate(132.191 20.074)">
        <g id="Grupo_39" data-name="Grupo 39">
          <path id="Caminho_22" data-name="Caminho 22" d="M857.15,235.245a24.373,24.373,0,0,0,2.171,3.355c.263.329.833,0,.57-.329a27.35,27.35,0,0,1-2.171-3.355.329.329,0,0,0-.57.329Z" transform="translate(-857.108 -234.752)" fill="#fff"/>
        </g>
      </g>
      <g id="Grupo_42" data-name="Grupo 42" transform="translate(134.44 20.015)">
        <g id="Grupo_41" data-name="Grupo 41">
          <path id="Caminho_23" data-name="Caminho 23" d="M868.138,234.708c-.263,1.228-.5,2.456-.767,3.684-.088.417.548.592.636.175.263-1.228.5-2.456.768-3.684.088-.395-.548-.57-.636-.175Z" transform="translate(-867.362 -234.485)" fill="#fff"/>
        </g>
      </g>
      <g id="Grupo_44" data-name="Grupo 44" transform="translate(194.161 110.473)">
        <g id="Grupo_43" data-name="Grupo 43">
          <path id="Caminho_24" data-name="Caminho 24" d="M1140.714,647.119a9.033,9.033,0,0,0-1.031,3.092c-.066.417.57.592.636.175a8.627,8.627,0,0,1,.965-2.917c.2-.395-.373-.724-.57-.351Z" transform="translate(-1139.678 -646.955)" fill="#fff"/>
        </g>
      </g>
      <g id="Grupo_46" data-name="Grupo 46" transform="translate(195.129 110.436)">
        <g id="Grupo_45" data-name="Grupo 45">
          <path id="Caminho_25" data-name="Caminho 25" d="M1144.115,647.183a28.976,28.976,0,0,0,1.513,3.355c.2.373.768.044.57-.329a28.027,28.027,0,0,1-1.447-3.2c-.154-.395-.79-.219-.636.175Z" transform="translate(-1144.092 -646.785)" fill="#fff"/>
        </g>
      </g>
      <g id="Grupo_48" data-name="Grupo 48" transform="translate(193.976 113.71)">
        <g id="Grupo_47" data-name="Grupo 47">
          <path id="Caminho_26" data-name="Caminho 26" d="M1138.893,662.195c.57.811,1.118,1.623,1.689,2.434.241.351.811.022.57-.329-.57-.811-1.119-1.623-1.689-2.434-.241-.351-.811-.022-.57.329Z" transform="translate(-1138.834 -661.716)" fill="#fff"/>
        </g>
      </g>
      <g id="Grupo_50" data-name="Grupo 50" transform="translate(195.745 113.929)">
        <g id="Grupo_49" data-name="Grupo 49">
          <path id="Caminho_27" data-name="Caminho 27" d="M1147.58,662.866a3.563,3.563,0,0,0-.68,2.127.329.329,0,0,0,.658,0,2.949,2.949,0,0,1,.592-1.8c.241-.351-.329-.68-.57-.329Z" transform="translate(-1146.9 -662.716)" fill="#fff"/>
        </g>
      </g>
      <g id="Grupo_52" data-name="Grupo 52" transform="translate(9.936 172.558)">
        <g id="Grupo_51" data-name="Grupo 51">
          <path id="Caminho_28" data-name="Caminho 28" d="M301.458,930.216c-.592,1.294-1.184,2.566-1.776,3.86-.175.373.395.724.57.329.592-1.294,1.184-2.566,1.776-3.86.175-.373-.373-.7-.57-.329Z" transform="translate(-299.649 -930.052)" fill="#fff"/>
        </g>
      </g>
      <g id="Grupo_54" data-name="Grupo 54" transform="translate(11.832 172.5)">
        <g id="Grupo_53" data-name="Grupo 53" transform="translate(0 0)">
          <path id="Caminho_29" data-name="Caminho 29" d="M308.316,930.183l1.711,4.079c.154.395.79.219.636-.175l-1.711-4.079c-.154-.395-.789-.219-.636.175Z" transform="translate(-308.292 -929.785)" fill="#fff"/>
        </g>
      </g>
      <g id="Grupo_56" data-name="Grupo 56" transform="translate(9.775 176.637)">
        <g id="Grupo_55" data-name="Grupo 55" transform="translate(0 0)">
          <path id="Caminho_30" data-name="Caminho 30" d="M298.954,949.189c.592,1.162,1.162,2.347,1.754,3.509a.345.345,0,0,0,.526.066,4.138,4.138,0,0,0,.921-1.513l1.053-2.105c.2-.373-.373-.7-.57-.329-.307.614-.636,1.228-.943,1.842a4.835,4.835,0,0,1-.965,1.623l.526.066c-.592-1.162-1.162-2.347-1.754-3.509-.175-.351-.746-.022-.548.351Z" transform="translate(-298.913 -948.652)" fill="#fff"/>
        </g>
      </g>
      <g id="Grupo_58" data-name="Grupo 58" transform="translate(231.18 70.624)">
        <g id="Grupo_57" data-name="Grupo 57">
          <path id="Caminho_31" data-name="Caminho 31" d="M1309.777,465.416a12.273,12.273,0,0,0-1.294,4.1c-.066.417.592.417.658,0a11.309,11.309,0,0,1,1.184-3.772c.219-.373-.351-.7-.548-.329Z" transform="translate(-1308.479 -465.252)" fill="#fff"/>
        </g>
      </g>
      <g id="Grupo_60" data-name="Grupo 60" transform="translate(232.35 71.063)">
        <g id="Grupo_59" data-name="Grupo 59">
          <path id="Caminho_32" data-name="Caminho 32" d="M1313.854,467.745c.68,1.316,1.338,2.632,2.018,3.948.2.373.768.044.57-.329-.68-1.316-1.338-2.632-2.018-3.948-.2-.373-.768-.044-.57.329Z" transform="translate(-1313.813 -467.252)" fill="#fff"/>
        </g>
      </g>
      <g id="Grupo_62" data-name="Grupo 62" transform="translate(231.205 74.595)">
        <g id="Grupo_61" data-name="Grupo 61">
          <path id="Caminho_33" data-name="Caminho 33" d="M1308.615,483.739a20.767,20.767,0,0,0,2,3.706c.241.351.811.022.57-.329a18.584,18.584,0,0,1-1.93-3.553c-.154-.373-.79-.2-.636.175Z" transform="translate(-1308.592 -483.357)" fill="#fff"/>
        </g>
      </g>
      <g id="Grupo_64" data-name="Grupo 64" transform="translate(233.263 75.039)">
        <g id="Grupo_63" data-name="Grupo 63">
          <path id="Caminho_34" data-name="Caminho 34" d="M1318.926,485.608a27.123,27.123,0,0,0-.943,3.772c-.066.417.57.592.636.175a25.657,25.657,0,0,1,.943-3.772c.132-.395-.5-.57-.636-.175Z" transform="translate(-1317.978 -485.385)" fill="#fff"/>
        </g>
      </g>
      <g id="Grupo_66" data-name="Grupo 66" transform="translate(229.154 177.024)">
        <g id="Grupo_65" data-name="Grupo 65">
          <path id="Caminho_35" data-name="Caminho 35" d="M1300.021,950.652c-.263.877-.5,1.733-.768,2.61a.33.33,0,0,0,.636.175c.263-.877.5-1.733.768-2.61a.33.33,0,0,0-.636-.176Z" transform="translate(-1299.241 -950.414)" fill="#fff"/>
        </g>
      </g>
      <g id="Grupo_68" data-name="Grupo 68" transform="translate(229.858 177.237)">
        <g id="Grupo_67" data-name="Grupo 67" transform="translate(0 0)">
          <path id="Caminho_36" data-name="Caminho 36" d="M1302.482,951.895c.395.877.812,1.754,1.206,2.61.176.395.746.044.57-.329-.395-.877-.811-1.754-1.206-2.61-.175-.395-.746-.066-.57.329Z" transform="translate(-1302.449 -951.387)" fill="#fff"/>
        </g>
      </g>
      <g id="Grupo_70" data-name="Grupo 70" transform="translate(229.334 179.879)">
        <g id="Grupo_69" data-name="Grupo 69" transform="translate(0 0)">
          <path id="Caminho_37" data-name="Caminho 37" d="M1300.071,963.844a5.888,5.888,0,0,0,1.36,2.741c.285.329.746-.154.46-.461a5.171,5.171,0,0,1-1.184-2.434c-.088-.439-.724-.263-.636.154Z" transform="translate(-1300.062 -963.435)" fill="#fff"/>
        </g>
      </g>
      <g id="Grupo_72" data-name="Grupo 72" transform="translate(230.678 179.978)">
        <g id="Grupo_71" data-name="Grupo 71">
          <path id="Caminho_38" data-name="Caminho 38" d="M1306.586,964.108a8.777,8.777,0,0,0-.395,2.807c.022.417.68.417.658,0a7.649,7.649,0,0,1,.373-2.632c.132-.395-.5-.57-.636-.175Z" transform="translate(-1306.189 -963.885)" fill="#fff"/>
        </g>
      </g>
      <g id="Grupo_74" data-name="Grupo 74" transform="translate(2.019 61.382)">
        <g id="Grupo_73" data-name="Grupo 73">
          <path id="Caminho_39" data-name="Caminho 39" d="M265.008,423.282c-.482,1.053-.943,2.105-1.426,3.158-.175.373.395.724.57.329.482-1.053.943-2.105,1.426-3.158.175-.373-.395-.724-.57-.329Z" transform="translate(-263.549 -423.108)" fill="#fff"/>
        </g>
      </g>
      <g id="Grupo_76" data-name="Grupo 76" transform="translate(2.116 64.864)">
        <g id="Grupo_75" data-name="Grupo 75">
          <path id="Caminho_40" data-name="Caminho 40" d="M264.016,439.383c.5,1.294.987,2.566,1.491,3.86.154.395.789.219.636-.175-.5-1.294-.987-2.566-1.491-3.86-.154-.395-.789-.219-.636.175Z" transform="translate(-263.992 -438.985)" fill="#fff"/>
        </g>
      </g>
      <g id="Grupo_78" data-name="Grupo 78" transform="translate(3.428 61.106)">
        <g id="Grupo_77" data-name="Grupo 77">
          <path id="Caminho_41" data-name="Caminho 41" d="M270.024,422.345c.68,1.184,1.36,2.39,2.04,3.575a.329.329,0,0,0,.57-.329c-.68-1.184-1.36-2.39-2.04-3.575a.329.329,0,0,0-.57.329Z" transform="translate(-269.975 -421.852)" fill="#fff"/>
        </g>
      </g>
      <g id="Grupo_80" data-name="Grupo 80" transform="translate(3.805 64.725)">
        <g id="Grupo_79" data-name="Grupo 79">
          <path id="Caminho_42" data-name="Caminho 42" d="M273.558,438.516a35.44,35.44,0,0,0-1.842,4.057c-.154.395.482.57.636.175a31.321,31.321,0,0,1,1.776-3.9c.2-.373-.373-.7-.57-.329Z" transform="translate(-271.692 -438.352)" fill="#fff"/>
        </g>
      </g>
      <g id="Grupo_82" data-name="Grupo 82" transform="translate(168.173 79.372)">
        <g id="Grupo_81" data-name="Grupo 81">
          <path id="Caminho_43" data-name="Caminho 43" d="M1021.8,507.542a2.425,2.425,0,0,1,2.237-1.36c.79.022,1.382.57,2.083.833,1.228.439,1.6-.351,2.522-.943,1.25-.833,2.456,1.031,3.794,1.009.768-.022,1.4-.395,1.425-1.206-.175.088-.329.2-.5.285.68.351,1.36.7,2.018,1.075.373.2.7-.373.329-.57-.68-.351-1.36-.7-2.018-1.075a.344.344,0,0,0-.5.285c-.066,1.557-3.092-.658-3.662-.724-1.294-.175-1.8,1.426-2.917,1.25-1.184-.2-1.93-1.053-3.2-.833a3.02,3.02,0,0,0-2.193,1.645c-.154.373.395.7.592.329Z" transform="translate(-1021.178 -505.139)" fill="#fff"/>
        </g>
      </g>
      <g id="Grupo_84" data-name="Grupo 84" transform="translate(176.641 76.246)">
        <g id="Grupo_83" data-name="Grupo 83">
          <path id="Caminho_44" data-name="Caminho 44" d="M1060.341,491.963c.987-1.1,2.544.285,3.662.417,1.294.153,2.3-1.228,3.553-.526,1.031.592,2.917,2,3.662.2.154-.395-.482-.57-.636-.175-.526,1.272-2.412-.5-3.048-.768a2.318,2.318,0,0,0-2.193.307,2.571,2.571,0,0,1-2.456-.11,4.73,4.73,0,0,0-1.228-.395,1.919,1.919,0,0,0-1.776.57c-.285.329.176.789.46.482Z" transform="translate(-1059.791 -490.886)" fill="#fff"/>
        </g>
      </g>
      <g id="Grupo_86" data-name="Grupo 86" transform="translate(158.672 23.078)">
        <g id="Grupo_85" data-name="Grupo 85">
          <path id="Caminho_45" data-name="Caminho 45" d="M978.567,250.96q.461-.855,1.053-.461a2.949,2.949,0,0,1,.526.263c.2.088.395.219.592.285a1.919,1.919,0,0,0,1.053.066c.943-.263,1.426-1.447,2.434-1.425.943.022,1.623.921,2.61.461.417-.2.7-.548,1.1-.768a2.432,2.432,0,0,1,2.7.307c.329.263.79-.2.461-.461a3.1,3.1,0,0,0-3.487-.417c-.5.285-.921.9-1.579.811a4.863,4.863,0,0,1-1.053-.439,1.874,1.874,0,0,0-1.535-.022c-.658.307-1.1,1.162-1.82,1.316-.921.2-1.535-.746-2.39-.768-.811-.022-1.754.768-1.206,1.579.219.351.789.022.548-.329Z" transform="translate(-977.856 -248.449)" fill="#fff"/>
        </g>
      </g>
      <g id="Grupo_88" data-name="Grupo 88" transform="translate(166.038 19.984)">
        <g id="Grupo_87" data-name="Grupo 87">
          <path id="Caminho_46" data-name="Caminho 46" d="M1012.069,236.066c.263-1.425,2.741-.044,3.619-.2a7.8,7.8,0,0,0,1.513-.68,2.627,2.627,0,0,1,2.412.263.329.329,0,0,0,.329-.57,3.441,3.441,0,0,0-2.105-.526,3.145,3.145,0,0,0-.921.219c-.877.373-1.228.789-2.325.526-1.053-.263-2.851-.79-3.136.789-.11.417.526.592.614.175Z" transform="translate(-1011.442 -234.343)" fill="#fff"/>
        </g>
      </g>
      <g id="Grupo_90" data-name="Grupo 90" transform="translate(0 99.88)">
        <g id="Grupo_89" data-name="Grupo 89">
          <path id="Caminho_47" data-name="Caminho 47" d="M254.969,599.74c.285-1.382,2.193.5,2.566.746a1.766,1.766,0,0,0,1.382.373c.658-.11,1.162-.658,1.842-.811a3.209,3.209,0,0,1,2.983.9c.307.307.768-.175.461-.461a3.816,3.816,0,0,0-2.478-1.162,3.5,3.5,0,0,0-1.426.175c-.724.241-1.294.943-2.171.592-.921-.373-1.272-1.316-2.325-1.425a1.2,1.2,0,0,0-1.447.9c-.11.417.526.592.614.175Z" transform="translate(-254.342 -598.656)" fill="#fff"/>
        </g>
      </g>
      <g id="Grupo_92" data-name="Grupo 92" transform="translate(7.301 98.549)">
        <g id="Grupo_91" data-name="Grupo 91">
          <path id="Caminho_48" data-name="Caminho 48" d="M288.263,593.423c.482-.658,2.7.658,3.333.811a8.86,8.86,0,0,0,3.136.11c.417-.066.241-.7-.175-.636a9.091,9.091,0,0,1-4.869-.9c-.746-.285-1.491-.395-2,.285-.241.329.329.658.57.329Z" transform="translate(-287.634 -592.586)" fill="#fff"/>
        </g>
      </g>
      <g id="Grupo_94" data-name="Grupo 94" transform="translate(60.777 142.874)">
        <g id="Grupo_93" data-name="Grupo 93">
          <path id="Caminho_49" data-name="Caminho 49" d="M532.095,797.175a1.841,1.841,0,0,1,1.579-.9c.57,0,.921.351,1.426.5a1.447,1.447,0,0,0,1.36-.219c.855-.57,1.272-1.272,2.434-1.228a7.274,7.274,0,0,1,2.983.987c.373.2.7-.373.329-.57-1.733-.877-3.838-1.711-5.5-.285a1.587,1.587,0,0,1-.987.5c-.636.132-.57.044-1.053-.153a2.474,2.474,0,0,0-3.136,1.009.335.335,0,0,0,.57.351Z" transform="translate(-531.475 -794.696)" fill="#fff"/>
        </g>
      </g>
      <g id="Grupo_96" data-name="Grupo 96" transform="translate(68.138 144.669)">
        <g id="Grupo_95" data-name="Grupo 95">
          <path id="Caminho_50" data-name="Caminho 50" d="M565.6,804.839c1.031-.9,2.983.987,4.255.811.768-.11,1.118-.68,1.623-1.206a2.752,2.752,0,0,1,3.6-.417c.351.219.68-.329.329-.57a3.446,3.446,0,0,0-2.851-.439,3.392,3.392,0,0,0-1.184.614c-.526.439-.855,1.228-1.6,1.36-1.6.285-3.114-1.952-4.627-.614-.307.285.154.746.461.461Z" transform="translate(-565.038 -802.884)" fill="#fff"/>
        </g>
      </g>
      <g id="Grupo_98" data-name="Grupo 98" transform="translate(38.138 0)">
        <g id="Grupo_97" data-name="Grupo 97">
          <path id="Caminho_51" data-name="Caminho 51" d="M428.891,149.18a2.23,2.23,0,0,1,1.294-1.6,4.3,4.3,0,0,1,1.754-.11,2.219,2.219,0,0,0,1.645-.921,7.541,7.541,0,0,1,1.952-2.127,4.174,4.174,0,0,1,3.355-.351c.417.132.57-.5.175-.636a4.871,4.871,0,0,0-5.461,1.952c-.5.7-.877,1.4-1.842,1.426a5.3,5.3,0,0,0-1.667.088,2.846,2.846,0,0,0-1.842,2.105.33.33,0,0,0,.636.175Z" transform="translate(-428.242 -143.22)" fill="#fff"/>
        </g>
      </g>
      <g id="Grupo_100" data-name="Grupo 100" transform="translate(41.118 2.306)">
        <g id="Grupo_99" data-name="Grupo 99">
          <path id="Caminho_52" data-name="Caminho 52" d="M442.594,159.911c-.943-2.5,3.575-2.369,4.934-2.851a17.749,17.749,0,0,0,4.562-2.7c.329-.241,0-.811-.329-.57a24.618,24.618,0,0,1-3,2,11.719,11.719,0,0,1-3.991,1.14c-1.513.241-3.487,1.294-2.785,3.136.132.395.768.241.614-.154Z" transform="translate(-441.834 -153.734)" fill="#fff"/>
        </g>
      </g>
    </g>
  </g>
</svg>
