<svg xmlns="http://www.w3.org/2000/svg" width="297.796" height="257.111" viewBox="0 0 297.796 257.111"><defs><style>.a{fill:#e8e8e8;}.b,.m,.o{fill:#161616;}.b,.g,.o{stroke:#161616;stroke-miterlimit:10;}.b,.g{stroke-width:2px;}.c{fill:#4c4c4c;}.d,.r,.s{fill:#282828;}.d{opacity:0.29;}.e{fill:#111;opacity:0.24;}.f,.h,.i,.j,.k,.l,.n,.q{fill:#6d6c6c;}.g{fill:#fff;}.h{opacity:0.14;}.i{opacity:0.17;}.j{opacity:0.13;}.k{opacity:0.16;}.l{opacity:0.12;}.n{opacity:0.26;}.p{fill:#191919;}.q{opacity:0.19;}.r{opacity:0.54;}.s{opacity:0.35;}</style></defs><g transform="translate(-230.1 -68.12)"><g transform="translate(230.1 68.12)"><g transform="translate(16.998 187.74)"><path class="a" d="M296.693,864.339a115.655,115.655,0,0,0,2.884,16.413.384.384,0,0,0,.74-.2,116.47,116.47,0,0,1-2.859-16.209c-.051-.485-.817-.485-.766,0Z" transform="translate(-296.69 -863.975)"/></g><g transform="translate(19.779 204.017)"><path class="a" d="M307.844,928.5a30.421,30.421,0,0,0,15.29,0,.384.384,0,0,0-.2-.74,29.4,29.4,0,0,1-14.882,0,.385.385,0,0,0-.2.74Z" transform="translate(-307.585 -927.742)"/></g><g transform="translate(35.149 187.332)"><path class="a" d="M368.564,879.05q.5-8.156,1.276-16.311c.051-.485-.715-.485-.766,0q-.766,8.156-1.276,16.311c-.026.485.74.485.766,0Z" transform="translate(-367.798 -862.375)"/></g><g transform="translate(17.157 187.584)"><path class="a" d="M297.591,864.291a45.728,45.728,0,0,0,19.247-.179c.485-.1.281-.842-.2-.74a45.061,45.061,0,0,1-18.838.179c-.485-.1-.689.638-.2.74Z" transform="translate(-297.314 -863.362)"/></g><g transform="translate(17.352 189.256)"><path class="a" d="M298.083,871.008c.2,1.047,1.532,1,2.348,1.072a56.4,56.4,0,0,0,6.228.179c1.991-.051,3.982-.2,5.973-.434a11.991,11.991,0,0,0,4.518-1.2c.434-.23.051-.893-.383-.664-2.527,1.4-6.024,1.353-8.858,1.481-1.4.051-2.833.077-4.237.051-.74-.026-4.7.153-4.85-.689-.1-.485-.817-.281-.74.2Z" transform="translate(-298.078 -869.913)"/></g><g transform="translate(18.765 198.634)"><path class="a" d="M303.661,907.226a22.411,22.411,0,0,0,4.646,5.743c.357.332.919-.2.536-.536a20.729,20.729,0,0,1-4.518-5.59c-.23-.434-.893-.051-.664.383Z" transform="translate(-303.613 -906.652)"/></g><g transform="translate(17.76 192.754)"><path class="a" d="M299.732,884.173a61.208,61.208,0,0,0,9.394,12.048c.357.357.893-.2.536-.536a60.576,60.576,0,0,1-9.266-11.9c-.255-.408-.919-.026-.664.383Z" transform="translate(-299.675 -883.616)"/></g><g transform="translate(22.033 190.899)"><path class="a" d="M316.461,876.926a90.658,90.658,0,0,0,9.394,13.657c.306.383.842-.153.536-.536a88.5,88.5,0,0,1-9.266-13.5c-.23-.434-.893-.051-.664.383Z" transform="translate(-316.413 -876.352)"/></g><g transform="translate(26.888 191.094)"><path class="a" d="M335.5,877.673q3.944,5.9,7.964,11.742c.281.408.944.025.664-.383q-4.02-5.858-7.964-11.742c-.281-.408-.944-.026-.664.383Z" transform="translate(-335.434 -877.116)"/></g><g transform="translate(30.983 190.865)"><path class="a" d="M351.533,876.773c1.327,2.144,2.757,4.237,4.237,6.279.281.383.945,0,.664-.383-1.48-2.042-2.91-4.135-4.237-6.279-.255-.408-.919-.026-.664.383Z" transform="translate(-351.475 -876.216)"/></g><g transform="translate(8.95 165.165)"><path class="a" d="M265.172,776.011c.306,1.761.613,3.548.944,5.309a1.993,1.993,0,0,0,.587,1.3c.281.23,1.2.2,1.378.459a2.814,2.814,0,0,0,.051-.459c-.383.383-.766.766-1.174,1.123a.427.427,0,0,0-.1.383,8,8,0,0,0,.842,2.3c.23.306.638.255.817.434.153.153.1.051.026.511a4.716,4.716,0,0,0,0,1.2,6.929,6.929,0,0,0,.485,1.761c1.327,3.216,3.906,5.82,6.382,8.22.357.332.893-.2.536-.536a38.7,38.7,0,0,1-4.467-4.9c-1.276-1.761-2.782-4.135-1.991-6.382a.355.355,0,0,0-.1-.383c-.485-.383-.97-.23-1.3-.842-.638-1.149-.281-1.532.536-2.323a.351.351,0,0,0,.051-.459,1.066,1.066,0,0,0-.689-.51c-.2-.077-.511,0-.715-.1-.434-.23-.434-.791-.51-1.2-.306-1.685-.613-3.395-.893-5.08-.051-.511-.791-.306-.689.179Z" transform="translate(-265.162 -775.535)"/></g><g transform="translate(9.262 164.778)"><path class="a" d="M266.644,774.78a24.907,24.907,0,0,1,16.975,23.127.383.383,0,0,0,.766,0,25.721,25.721,0,0,0-17.537-23.867c-.459-.153-.664.587-.2.74Z" transform="translate(-266.385 -774.019)"/></g><g transform="translate(24.051 159.436)"><path class="a" d="M325.08,771.855c2.476-6.867,6.126-13.5,11.972-18.022.383-.306,0-.97-.383-.664-6.024,4.671-9.777,11.41-12.329,18.481-.153.459.587.664.74.2Z" transform="translate(-324.319 -753.091)"/></g><g transform="translate(36.119 159.661)"><path class="a" d="M371.6,754.339c.179,2.348.383,4.7.562,7.071.051.485.817.485.766,0-.179-2.348-.383-4.7-.562-7.071-.026-.485-.791-.485-.766,0Z" transform="translate(-371.598 -753.975)"/></g><g transform="translate(35.766 166.83)"><path class="a" d="M371.461,782.071c-.332.077-.664.153-.97.255a.384.384,0,0,0,.2.74c.332-.077.664-.153.97-.255a.384.384,0,0,0-.2-.74Z" transform="translate(-370.214 -782.061)"/></g><g transform="translate(35.647 167.303)"><path class="a" d="M369.762,784.394a1.084,1.084,0,0,0,.97.842.376.376,0,0,0,.383-.383.393.393,0,0,0-.383-.383h-.026c-.026,0-.077-.026-.026,0-.026-.026-.051-.026-.077-.051-.051-.026.051.051-.026-.026l-.051-.051c.051.051,0,0,0-.026-.025-.026-.025-.077-.025-.026,0-.026-.026-.077-.026-.1a.357.357,0,0,0-.459-.255.365.365,0,0,0-.255.459Z" transform="translate(-369.749 -783.912)"/></g><g transform="translate(35.069 167.979)"><path class="a" d="M368.662,786.929a34.624,34.624,0,0,1-.179,4.314c-.051.459.026,1.532-.281,1.889a4.688,4.688,0,0,0-.587.179c-.383.306.153.842.536.536.128-.1.434,0,.638-.23.306-.306.255-1.021.306-1.378a37.189,37.189,0,0,0,.306-5.335c.026-.459-.74-.459-.74.026Z" transform="translate(-367.484 -786.562)"/></g><g transform="translate(31.421 174.738)"><path class="a" d="M356.665,813.692c.817.97.587,2.578.51,3.752a8.755,8.755,0,0,1-1,3.778c-.944,1.736-2.272,3.191-2.961,5.08-.179.459.562.664.74.2.919-2.476,3.038-4.314,3.676-6.918.459-1.863.893-4.85-.434-6.433-.306-.357-.842.179-.536.536Z" transform="translate(-353.192 -813.038)"/></g><g transform="translate(28.102 166.868)"><path class="a" d="M340.959,803.7a64.583,64.583,0,0,1,5.692-20.906c.2-.434-.459-.842-.664-.383a65.79,65.79,0,0,0-5.794,21.314c-.051.485.715.459.766-.026Z" transform="translate(-340.19 -782.208)"/></g><g transform="translate(13.718 169.134)"><path class="a" d="M283.933,791.752a53.424,53.424,0,0,1,9.649,18.966.384.384,0,0,0,.74-.2,54.513,54.513,0,0,0-9.853-19.3c-.306-.383-.842.153-.536.536Z" transform="translate(-283.842 -791.084)"/></g><g transform="translate(13.912 178.437)"><path class="a" d="M284.983,828.314a9.939,9.939,0,0,1,5.948,1.506c.408.255.817-.408.383-.664a10.837,10.837,0,0,0-6.33-1.608c-.511.026-.511.791,0,.766Z" transform="translate(-284.6 -827.53)"/></g><g transform="translate(18.148 171.253)"><path class="a" d="M302.013,803.933a8.3,8.3,0,0,1,.562-4.084c.179-.459-.562-.664-.74-.2a8.786,8.786,0,0,0-.587,4.288c.051.485.817.485.766,0Z" transform="translate(-301.195 -799.385)"/></g><g transform="translate(27.209 171.1)"><path class="a" d="M336.719,799.248c.842,2.068,2.068,4.263,2.374,6.458.077.485.817.281.74-.2-.332-2.221-1.557-4.416-2.374-6.458-.179-.459-.919-.255-.74.2Z" transform="translate(-336.692 -798.785)"/></g><g transform="translate(31.293 169.21)"><path class="a" d="M353.331,796.161a13.779,13.779,0,0,1,2.4-2.476A9.712,9.712,0,0,0,358,792.052c.306-.383-.23-.919-.536-.536a13.547,13.547,0,0,1-2.425,1.736,16.489,16.489,0,0,0-2.246,2.374c-.332.383.2.919.536.536Z" transform="translate(-352.691 -791.384)"/></g><g transform="translate(31.718 186.934)"><path class="a" d="M354.827,861.986a11.6,11.6,0,0,1,3.752-.383c.485.026.485-.74,0-.766a12.153,12.153,0,0,0-3.957.408.384.384,0,0,0,.2.74Z" transform="translate(-354.357 -860.816)"/></g><g transform="translate(31.723 187.164)"><path class="a" d="M354.739,862.965a10.607,10.607,0,0,0,4.186-.485c.459-.153.255-.893-.2-.74a10.536,10.536,0,0,1-3.982.459c-.485-.025-.485.74,0,.766Z" transform="translate(-354.375 -861.719)"/></g><g transform="translate(17.403 187.517)"><path class="a" d="M298.639,863.866h.97a.383.383,0,0,0,0-.766h-.97a.383.383,0,0,0,0,.766Z" transform="translate(-298.275 -863.1)"/></g><g transform="translate(36.113 193.694)"><path class="a" d="M371.939,888.066h24.3a.383.383,0,0,0,0-.766h-24.3a.383.383,0,0,0,0,.766Z" transform="translate(-371.575 -887.3)"/></g><g transform="translate(173.087 188.64)"><path class="a" d="M908.539,868.266h14.448a.383.383,0,0,0,0-.766H908.539a.383.383,0,0,0,0,.766Z" transform="translate(-908.175 -867.5)"/></g><g transform="translate(216.89 189.099)"><path class="a" d="M1080.139,870.066h80.178a.383.383,0,0,0,0-.766h-80.178a.383.383,0,0,0,0,.766Z" transform="translate(-1079.775 -869.3)"/></g><g transform="translate(180.146 105.86)"><path class="a" d="M942.126,543.41q-2.91,6.011-6.254,11.793c-.1.2-.026.536.23.562,10.951,1.659,20.753,7.1,30.2,12.584a.383.383,0,0,0,.383-.664c-9.521-5.514-19.374-10.976-30.4-12.661.077.179.153.383.23.562,2.246-3.854,4.314-7.786,6.254-11.793.23-.434-.408-.842-.638-.383Z" transform="translate(-935.829 -543.208)"/></g><g transform="translate(187.367 108.446)"><path class="a" d="M964.88,564.866c.766-2.2,1.531-4.416,2.3-6.611a28.7,28.7,0,0,1,1-2.833,1.849,1.849,0,0,1,.944-1.251l.919.23c.46.128.919.23,1.353.357,1.047.255,2.731.255,2.553,1.659a17.119,17.119,0,0,1-1.047,3.038c-.766,2.17-1.506,4.339-2.272,6.509-.153.46.587.664.74.2,1-2.859,1.991-5.743,2.987-8.6.23-.664.868-1.787.357-2.5-.562-.766-2.246-.817-3.114-1.047-.842-.2-2.323-.97-3.191-.562-.74.332-.893,1.608-1.123,2.246-1.047,2.987-2.093,6-3.14,8.985-.153.434.587.638.74.179Z" transform="translate(-964.119 -553.337)"/></g><g transform="translate(197.262 103.123)"><path class="a" d="M1003.6,552.067c1.634-3.446,3.293-6.918,4.927-10.364.817-1.736,1.634-3.446,2.476-5.182a21.944,21.944,0,0,1,1.174-2.476c.408-.638.511-.791,1.225-.511a7.133,7.133,0,0,1,1.174.766,6.66,6.66,0,0,1,1.43,1.047c.383.485.23,1,0,1.608-.306.817-.766,1.608-1.149,2.4-.842,1.736-1.685,3.472-2.578,5.207-1.685,3.293-3.446,6.56-5.258,9.8a.383.383,0,0,0,.664.383q3.331-5.9,6.331-11.946c1-1.991,2.093-4.033,2.936-6.1.587-1.506-.689-2.119-1.812-2.91-.893-.613-2.3-2.017-3.267-.868a12.775,12.775,0,0,0-1.353,2.782c-.51,1.047-1,2.093-1.506,3.165q-3.063,6.433-6.1,12.865c-.179.383.485.791.689.332Z" transform="translate(-1002.881 -532.484)"/></g><g transform="translate(205.75 117.596)"><path class="a" d="M1036.84,599.6a72.354,72.354,0,0,1,7.4-9.725,2.824,2.824,0,0,1-.46.051c.97.664,1.914,1.3,2.885,1.966a4.086,4.086,0,0,1-.128-.536c-2.17,3.4-4.339,6.765-6.509,10.159-.255.408.383.791.664.383,2.17-3.395,4.339-6.764,6.509-10.159a.409.409,0,0,0-.128-.536c-.97-.664-1.914-1.3-2.885-1.965a.385.385,0,0,0-.459.051,74.212,74.212,0,0,0-7.53,9.879.386.386,0,1,0,.638.434Z" transform="translate(-1036.134 -589.182)"/></g><g transform="translate(232.342 92.565)"><path class="a" d="M1144.876,502.3a5.7,5.7,0,0,1-3.7-6.254c.459-2.782,3.191-5.258,6-3.6a4.947,4.947,0,0,1-3.4,9.138c-.485-.077-.689.664-.2.74a5.964,5.964,0,0,0,6.535-3.8,5.867,5.867,0,0,0-3.216-7.071c-3.114-1.276-5.948,1.4-6.484,4.39a6.5,6.5,0,0,0,4.238,7.2c.485.179.689-.562.23-.74Z" transform="translate(-1140.309 -491.122)"/></g><g transform="translate(238.277 94.475)"><path class="a" d="M1167.423,507.386c-5.08-.153-3.165-8.3,1.327-7.99,4.493.332,2.655,9.5-2.272,7.811-.46-.153-.664.587-.2.74,5.692,1.94,8.245-8.424,2.808-9.292-2.655-.434-5.054,2.068-5.463,4.544a4.114,4.114,0,0,0,3.8,4.927c.485.051.485-.715,0-.74Z" transform="translate(-1163.558 -498.607)"/></g><g transform="translate(237.086 77.027)"><path class="a" d="M1160.145,433.38a1.525,1.525,0,0,1-.306-1.761,1.186,1.186,0,0,1,1.659-.383,1.02,1.02,0,0,1,.128,1.506,1.468,1.468,0,0,1-1.812-.153c-.383-.306-.919.23-.536.536a2.275,2.275,0,0,0,2.859.179,1.793,1.793,0,0,0-.077-2.629,1.963,1.963,0,0,0-2.706.281,2.233,2.233,0,0,0,.23,2.961.389.389,0,0,0,.562-.536Z" transform="translate(-1158.892 -430.254)"/></g><g transform="translate(163.432 56.551)"><path class="a" d="M871.182,392.859c-.715-4.339,1.812-9.572,6.713-9.521,2.5.026,4.927,1.047,7.454.689a6.773,6.773,0,0,0,4.391-2.68,9.05,9.05,0,0,0,1.787-4.927c.128-2.6-.868-5.258-.153-7.837A4.186,4.186,0,0,1,893.8,365.6a13.316,13.316,0,0,1,3.906-.23,4.89,4.89,0,0,0,4.314-2.553c1.327-2.323,1.021-5.105,1.94-7.556,1.1-2.961,4.186-5.488,7.454-4.033.434.2.842-.459.383-.664-4.442-1.991-8.143,2.017-9.011,6.05-.562,2.629-.459,6.713-3.6,7.76-2.2.74-4.671-.408-6.688,1.1-1.659,1.225-2.144,3.472-2.119,5.437.077,2.884.97,5.692-.306,8.449a6.387,6.387,0,0,1-6.382,3.982c-2.553-.153-5.08-1.2-7.658-.536-4.365,1.1-6.228,6.254-5.539,10.287.051.434.791.23.689-.23Z" transform="translate(-870.353 -350.035)"/></g><g transform="translate(195.479 58.143)"><path class="a" d="M996.944,379.305a3.582,3.582,0,0,1,2.425-4.876c1.506-.511,3.165-.536,4.467-1.557a3.144,3.144,0,0,0,1.225-3.063c-.128-1.2-.128-2.144.817-2.961a4.631,4.631,0,0,1,2.859-1c2.808-.1,6.662,1.327,8.7-1.4.944-1.276.664-2.859,1.1-4.288a4.446,4.446,0,0,1,4.544-3.114c.485.025.485-.74,0-.766a5.335,5.335,0,0,0-4.135,1.634c-1.327,1.4-1.149,2.987-1.557,4.748-1.1,4.824-7.811,1.429-10.976,2.935a3.6,3.6,0,0,0-2.221,2.884c-.128,1.557.587,2.833-1,3.905a8.209,8.209,0,0,1-2.782.97c-1.608.383-3.191.868-4.008,2.425a4.327,4.327,0,0,0-.1,3.88c.179.485.817.077.638-.357Z" transform="translate(-995.897 -356.274)"/></g><g transform="translate(240.988 36.512)"><path class="a" d="M1175.206,282.194a6.376,6.376,0,0,1-.281-.74c.332-.383.638-.766.97-1.149.1-.026.562.281.715.281a1.339,1.339,0,0,0,1.021-.281c.944-.74.613-1.914.893-2.91.459-1.71,2.476-.536,3.395-1.812.919-1.251.587-3.906,3.038-3.191a.384.384,0,0,0,.2-.74,2.525,2.525,0,0,0-3.191,1.608c-.153.383-.2.817-.358,1.2-.332.893-.689,1.021-1.659,1.072-.715.051-1.276,0-1.761.613a3.631,3.631,0,0,0-.485,1.863c-.076.944,0,1.736-1.4,1.634-.281-.026-.51-.281-.817-.281-1.685-.026-1.4,2.042-1,3.038.153.459.919.255.715-.2Z" transform="translate(-1174.18 -271.532)"/></g><g transform="translate(245.47 38.779)"><path class="a" d="M1193.08,290.927c-.408-.536-1.1-2.093.1-2.5a4.65,4.65,0,0,1,1.455.026,1.525,1.525,0,0,0,1.1-.281c1.021-.817.281-2.272.817-3.293.868-1.659,2.6-.357,3.829-1.225a3.974,3.974,0,0,0,1.251-2.757c.077-.485-.664-.689-.74-.2-.179,1.149-.383,2.425-1.812,2.553-.74.077-1.3-.179-1.991.153a2.742,2.742,0,0,0-1.506,2.68c-.026.97.2,1.455-1.43,1.532-.2,0-.408-.051-.613-.051a1.917,1.917,0,0,0-1.429.842,2.525,2.525,0,0,0,.408,3.089c.332.383.868-.179.562-.562Z" transform="translate(-1191.737 -280.414)"/></g><g transform="translate(29.123 58.037)"><path class="a" d="M344.858,360.949c2.119-2.553,5.131-4.646,8.6-4.288,3.778.383,5.641,3.4,6,6.918.613,5.846-.817,12.84,3.14,17.817a6.158,6.158,0,0,0,6.382,2.4c3.012-.715,5.361-3.089,8.041-4.493,3.165-1.659,7.53-2.553,10.389.23,2.093,2.042,2.553,5.156,3.242,7.862.638,2.451,1.736,5.156,3.931,6.611a6.683,6.683,0,0,0,4.314.842c1.71-.128,5.207-.23,4.85,2.451-.051.485.715.485.766,0a2.614,2.614,0,0,0-1.2-2.5c-1.327-.97-2.859-.817-4.416-.715a5.6,5.6,0,0,1-4.62-1.276,10.156,10.156,0,0,1-2.5-4.263c-.893-2.68-1.149-5.616-2.68-8.066a7.578,7.578,0,0,0-6.918-3.5c-3.548.128-6.535,2.17-9.368,4.059a12.026,12.026,0,0,1-4.467,2.119,5.388,5.388,0,0,1-5.029-2.017c-2.4-2.808-2.782-6.815-2.91-10.338-.128-3.293.306-6.867-.791-10.057a7.134,7.134,0,0,0-6.56-4.875c-3.523-.179-6.611,1.94-8.781,4.544-.281.383.255.919.587.536Z" transform="translate(-344.192 -355.859)"/></g><g transform="translate(16.841 101.941)"><path class="a" d="M296.132,528.426A189.13,189.13,0,0,1,306.8,549c.2.459.868.051.664-.383a193.747,193.747,0,0,0-10.67-20.574.383.383,0,0,0-.664.383Z" transform="translate(-296.075 -527.852)"/></g><g transform="translate(16.81 90.776)"><path class="a" d="M296.526,495.546c6.2-3.854,12.584-7.454,19.145-10.721.434-.23.051-.893-.383-.664-6.535,3.267-12.916,6.867-19.145,10.721-.434.281-.051.944.383.664Z" transform="translate(-295.952 -484.113)"/></g><g transform="translate(36.029 90.565)"><path class="a" d="M371.284,483.878q4.863,10.223,10.287,20.14c.23.434.893.051.664-.383-3.625-6.611-7.071-13.325-10.287-20.14-.23-.459-.868-.077-.664.383Z" transform="translate(-371.244 -483.287)"/></g><g transform="translate(27.879 111.187)"><path class="a" d="M339.873,576.13q9.151-5.514,18.1-11.334c.408-.255.026-.919-.383-.664q-8.96,5.82-18.1,11.334c-.408.255-.026.919.383.664Z" transform="translate(-339.316 -564.075)"/></g><g transform="translate(27.911 99.598)"><path class="a" d="M339.482,519.039a82.46,82.46,0,0,0,.842,14.627c.077.485.817.281.74-.2a80.17,80.17,0,0,1-.817-14.422c.026-.485-.74-.485-.766,0Z" transform="translate(-339.441 -518.675)"/></g><g transform="translate(27.845 99.079)"><path class="a" d="M339.316,517.269c3.548,2.782,7.1,5.514,10.7,8.219.383.306.766-.357.383-.664q-5.322-3.982-10.542-8.092c-.383-.306-.919.23-.536.536Z" transform="translate(-339.184 -516.642)"/></g><g transform="translate(28.92 107.221)"><path class="a" d="M344.061,556.059c2.936-2.629,6.764-4.033,9.547-6.867.357-.357-.2-.893-.536-.536-2.782,2.808-6.586,4.237-9.547,6.867-.383.306.179.842.536.536Z" transform="translate(-343.397 -548.538)"/></g><g transform="translate(17.346 104.62)"><path class="a" d="M298.626,540.251c.817-.408,1.634-.791,2.451-1.2.434-.2.051-.868-.383-.664-.817.408-1.634.791-2.451,1.2-.434.23-.051.868.383.664Z" transform="translate(-298.052 -538.349)"/></g><g transform="translate(19.982 108.919)"><path class="a" d="M308.948,557.134a13.927,13.927,0,0,1,2.2-1.174c.459-.179.255-.919-.2-.74a16.448,16.448,0,0,0-2.4,1.251c-.383.281,0,.944.408.664Z" transform="translate(-308.381 -555.192)"/></g><g transform="translate(22.859 114.115)"><path class="a" d="M320.226,577.294c.715-.357,1.429-.715,2.144-1.047.434-.23.051-.868-.383-.664-.715.357-1.429.715-2.144,1.047-.434.2-.051.868.383.664Z" transform="translate(-319.652 -575.544)"/></g><g transform="translate(24.246 118.368)"><path class="a" d="M325.752,594.707a14.58,14.58,0,0,1,2.527-1.787.383.383,0,0,0-.383-.664,16.075,16.075,0,0,0-2.68,1.915c-.383.332.153.868.536.536Z" transform="translate(-325.084 -592.208)"/></g><g transform="translate(36.957 94.566)"><path class="a" d="M375.448,500.579a5.778,5.778,0,0,1,1.889-.868.384.384,0,0,0-.2-.74,5.955,5.955,0,0,0-2.093.944c-.383.281,0,.944.408.664Z" transform="translate(-374.881 -498.961)"/></g><g transform="translate(39.222 98.271)"><path class="a" d="M384.326,515.753c.817-.511,1.634-1.021,2.425-1.557.408-.255.026-.919-.383-.664-.817.51-1.634,1.021-2.425,1.557-.434.281-.051.944.383.664Z" transform="translate(-383.752 -513.475)"/></g><g transform="translate(41.814 103.931)"><path class="a" d="M394.493,537.5c.868-.383,1.761-.766,2.629-1.149.46-.2.051-.868-.383-.664-.868.383-1.761.766-2.629,1.149-.46.2-.051.868.383.664Z" transform="translate(-393.908 -535.649)"/></g><g transform="translate(43.609 106.781)"><path class="a" d="M401.592,549.235a11.693,11.693,0,0,1,2.3-1.71c.434-.23.051-.893-.383-.664a12.18,12.18,0,0,0-2.451,1.812.388.388,0,0,0,.536.562Z" transform="translate(-400.938 -546.813)"/></g><g transform="translate(30.538 119.306)"><path class="a" d="M349.8,596.448a15.224,15.224,0,0,1,1.583,2.986c.179.459.919.255.74-.2a15.161,15.161,0,0,0-1.659-3.191c-.281-.383-.945,0-.664.408Z" transform="translate(-349.734 -595.881)"/></g><g transform="translate(34.464 117.18)"><path class="a" d="M365.161,588.126c.485.868.944,1.71,1.429,2.578.23.434.893.051.664-.383-.485-.868-.944-1.71-1.429-2.578-.23-.434-.893-.051-.664.383Z" transform="translate(-365.113 -587.552)"/></g><g transform="translate(38.982 113.938)"><path class="a" d="M382.861,575.426l1.532,2.757c.23.434.893.051.664-.383l-1.532-2.757c-.23-.434-.893-.051-.664.383Z" transform="translate(-382.813 -574.852)"/></g><g transform="translate(43.05 111.513)"><path class="a" d="M398.787,565.926c.408.97.817,1.94,1.251,2.885.2.459.842.051.664-.383-.408-.97-.817-1.94-1.251-2.884-.2-.434-.868-.051-.664.383Z" transform="translate(-398.749 -565.352)"/></g><g transform="translate(19.879 97.719)"><path class="a" d="M308.033,511.873c.485.791.944,1.583,1.429,2.348.255.434.919.026.664-.383-.485-.791-.944-1.583-1.429-2.348-.255-.408-.919-.026-.664.383Z" transform="translate(-307.975 -511.316)"/></g><g transform="translate(24.287 95.134)"><path class="a" d="M325.284,501.778l1.378,3.063c.2.459.868.051.664-.383l-1.378-3.063c-.23-.459-.868-.077-.664.383Z" transform="translate(-325.244 -501.187)"/></g><g transform="translate(28.215 92.728)"><path class="a" d="M340.7,492.306a10.5,10.5,0,0,1,1.583,2.987c.153.459.893.255.74-.2a10.427,10.427,0,0,0-1.659-3.165c-.281-.383-.944-.026-.664.383Z" transform="translate(-340.634 -491.76)"/></g><g transform="translate(32.478 90.751)"><path class="a" d="M357.4,484.573c.536.817,1.047,1.608,1.583,2.425.255.408.919.026.664-.383-.536-.817-1.047-1.608-1.583-2.425-.281-.408-.944-.026-.664.383Z" transform="translate(-357.334 -484.016)"/></g><g transform="translate(69.339 32.752)"><path class="a" d="M504.637,264.741c-2.476-.766-2.6-3.395-1.429-5.361a3.182,3.182,0,0,1,5.105-.842,3.609,3.609,0,0,1,.23,5.054,3.731,3.731,0,0,1-5.029.332c-.383-.306-.766.357-.383.664a4.432,4.432,0,0,0,6.228-.817,4.377,4.377,0,0,0-1.149-6.279c-5.105-3.293-9.5,6.2-3.778,7.99a.384.384,0,0,0,.2-.74Z" transform="translate(-501.737 -256.804)"/></g><g transform="translate(73.595 36.3)"><path class="a" d="M521.164,275.756c-1.914.587-2.374-1.71-1.531-2.936a3.119,3.119,0,0,1,3.267-1.251,2.3,2.3,0,0,1,1.71,2.706,2.8,2.8,0,0,1-3.369,1.812c-.485-.077-.689.664-.2.74,1.889.332,3.931-.485,4.339-2.527a3.091,3.091,0,0,0-2.731-3.574,3.857,3.857,0,0,0-4.212,3.089,2.365,2.365,0,0,0,2.987,2.655c.434-.128.23-.868-.255-.715Z" transform="translate(-518.41 -270.702)"/></g><g transform="translate(59.862 57.78)"><path class="a" d="M464.814,355.043a2.041,2.041,0,0,0,1.532,2.833,14.564,14.564,0,0,0,2.987.077,8.7,8.7,0,0,1,3.114.74,5.673,5.673,0,0,1,3.6,5.105c.077,1.991-.51,4.059.357,5.948,1.838,3.982,6.892.944,9.5,3.523,2.17,2.17,1.276,6.126,4.186,7.785a.383.383,0,0,0,.383-.664c-2.6-1.48-1.991-5.335-3.829-7.479a5.219,5.219,0,0,0-3.8-1.532c-1.736-.1-3.982.255-5.258-1.225-1.48-1.736-.689-4.339-.766-6.382a6.125,6.125,0,0,0-1.71-4.212,8.11,8.11,0,0,0-3.65-2.042,9.9,9.9,0,0,0-2.119-.332c-.919-.051-4.9.408-3.829-1.761.2-.434-.46-.817-.689-.383Z" transform="translate(-464.613 -354.852)"/></g><g transform="translate(0 194.996)"><path class="a" d="M230.483,893.166h13.835a.383.383,0,0,0,0-.766H230.483a.383.383,0,0,0,0,.766Z" transform="translate(-230.1 -892.4)"/></g><g transform="translate(7.454 212.303)"><g transform="translate(0 0)"><path class="a" d="M259.683,960.966h26.624a.383.383,0,0,0,0-.766H259.683a.383.383,0,0,0,0,.766Z" transform="translate(-259.3 -960.2)"/></g></g><g transform="translate(33.005 207.504)"><path class="a" d="M359.783,942.166h24.76a.383.383,0,0,0,0-.766h-24.76a.383.383,0,1,0,0,.766Z" transform="translate(-359.4 -941.4)"/></g><g transform="translate(170.225 204.215)"><path class="a" d="M897.432,931.244a31.663,31.663,0,0,1,12.584-.459,22.662,22.662,0,0,0,5.412.408,30.332,30.332,0,0,0,5.182-1.149,17.208,17.208,0,0,1,5.922-.791,42.248,42.248,0,0,1,6.152,1.2,22.343,22.343,0,0,0,5.36.664,46.415,46.415,0,0,0,5.667-.664c5.105-.817,9.9-.306,14.958.536.485.077.689-.664.2-.74-4.084-.664-8.194-1.353-12.355-.944-4.339.434-8.373,1.506-12.763.613-3.676-.74-7.173-1.889-10.951-1.174-2.016.383-3.931,1.1-5.948,1.481a18.867,18.867,0,0,1-6.662-.179,32.771,32.771,0,0,0-12.993.459c-.434.128-.23.868.23.74Z" transform="translate(-896.963 -928.517)"/></g><g transform="translate(209.535 197.008)"><path class="a" d="M1051.329,902.456q12.023-.651,24.046-1.276a61.994,61.994,0,0,1,11.717.408,20.919,20.919,0,0,0,5.207.077c1.966-.23,4.008-.536,5.845.408.434.23.817-.434.383-.664-3.114-1.583-6.713-.1-10.057-.409-1.991-.179-3.931-.561-5.922-.664-2.068-.1-4.135-.051-6.2.051-8.347.383-16.694.893-25.041,1.327a.371.371,0,0,0,.026.74Z" transform="translate(-1050.962 -900.282)"/></g><g transform="translate(52.568 218.87)"><g transform="translate(0 0)"><path class="a" d="M436.411,988.168a54.546,54.546,0,0,0,11.359.281,29.924,29.924,0,0,0,5.156-1.1,13.4,13.4,0,0,1,6.509-.434c1.761.306,3.5.74,5.258.893a31.478,31.478,0,0,0,5.59-.128c3.905-.383,7.811-1.047,11.691-.179.485.1.689-.638.2-.74-3.727-.817-7.454-.281-11.206.1a37.272,37.272,0,0,1-5.59.255,56.483,56.483,0,0,1-6.228-1,12.734,12.734,0,0,0-5.105.128c-1.838.459-3.574,1.072-5.463,1.353-4.033.587-8.143.179-12.176-.179-.51-.077-.485.689,0,.74Z" transform="translate(-436.037 -985.929)"/></g></g><g transform="translate(90.561 0)"><path class="a" d="M587.64,143.634c-1-.689-2.348-1.787-1.94-3.165.434-1.429,1.506-.74,2.5-1.072,1.327-.434,1.251-2.042.868-3.089-.383-1.021-1.2-3.5.919-2.655.485.2.842.536,1.4.357a1.413,1.413,0,0,0,.893-1.1,4.8,4.8,0,0,0,0-1.353,5.894,5.894,0,0,1-.077-.944c-.1-.74.357-1.047,1.327-.919.025.485.791.485.766,0a1.253,1.253,0,0,0-1.353-1.2c-.893.026-1.378.893-1.48,1.71-.077.562.383,1.863.128,2.323-.306.2-.613.434-.944.638l-.383-.23a6.946,6.946,0,0,0-.638-.281,1.478,1.478,0,0,0-1.71,1.021c-.485,1.225.383,2.246.638,3.4.332,1.583-.868,1.4-1.915,1.583a1.99,1.99,0,0,0-1.149.638c-1.608,1.863.255,3.931,1.787,5,.383.281.766-.383.357-.664Z" transform="translate(-584.878 -128.496)"/></g><g transform="translate(96.658 4.242)"><path class="a" d="M610.455,155.3c-.842-.97-1.48-2.3.153-2.808a4.321,4.321,0,0,0,1.251-.332c.842-.587.485-1.378.332-2.2a2.256,2.256,0,0,1,.026-1.532c.2-.332.944-.459,1.327-.536a4.659,4.659,0,0,0,1.557-.511,1.528,1.528,0,0,0,.485-2.093c-.255-.408-.919-.026-.664.383.766,1.225-2.808,1.557-3.421,2.451-.715,1.047.791,2.884-.459,3.548-.485.255-1.1.077-1.557.408a1.719,1.719,0,0,0-.664.97c-.281,1.1.46,2.042,1.123,2.808.306.357.842-.179.51-.562Z" transform="translate(-608.76 -145.116)"/></g><g transform="translate(66.811 3.677)"><path class="a" d="M493.228,147.6a1.736,1.736,0,0,1-.536-1.991c.128-.485.74-1.812,1.327-1.863.97-.1,1.455,1.123,1.71,1.838a7.318,7.318,0,0,1,.332,2.093.383.383,0,0,0,.766,0c-.026-1.429-.97-5.82-3.318-4.544a4.1,4.1,0,0,0-1.659,2.859,2.39,2.39,0,0,0,1,2.272c.383.281.766-.383.383-.664Z" transform="translate(-491.833 -142.9)"/></g><g transform="translate(62.667 8.772)"><path class="a" d="M480.832,162.872c-.919.23-1.838.459-2.782.689a4.427,4.427,0,0,0-1.889.587c-.74.689-.536,2.808-.536,3.7a.375.375,0,0,0,.485.357c.128-.026.255-.077.408-.1.664-.357,1-.128,1.021.638.511.511.511.817,0,.868a2.391,2.391,0,0,1-.944.179.393.393,0,0,0-.383.383c.051,1.634.179,3.242.357,4.876.051.485.817.485.766,0-.179-1.634-.306-3.242-.357-4.876l-.383.383c1.072-.128,2.782-.562,2.553-2.017-.255-1.557-2.144-1.378-3.216-1.072a5.881,5.881,0,0,0,.485.357c0-.587,0-1.149.051-1.736.077-.919.026-1.251.868-1.583a30.155,30.155,0,0,1,3.7-.919c.485-.077.281-.817-.2-.715Z" transform="translate(-475.599 -162.862)"/></g><g transform="translate(71.212 8.227)"><path class="a" d="M509.439,161.51a19.654,19.654,0,0,1,3.242.077c1.021.128.97.281,1.123,1.174.1.562.128,1.149.179,1.71.2,2.2.357,4.391.485,6.586.026.485.791.485.766,0a81.943,81.943,0,0,0-.74-9.011c-.128-.74-.255-.97-1.021-1.1a16.449,16.449,0,0,0-4.033-.179c-.485,0-.485.766,0,.74Z" transform="translate(-509.075 -160.725)"/></g><g transform="translate(63.717 18.313)"><path class="a" d="M480.2,203.419c1.506-.255,3.012-.511,4.493-.766,1.71-.281,3.344-.153,5.054-.281.791-.077,4.544-.459,3.165-2.017-.332-.357-.868.179-.536.536.2.23-3.267.74-3.344.74-1.072.026-2.144-.026-3.216.1-1.94.23-3.88.638-5.82.97-.485.051-.281.791.2.715Z" transform="translate(-479.714 -200.238)"/></g></g><g transform="translate(343.035 226.792)"><path class="b" d="M719.724,964.1q-7.275,8.921-14.524,17.817c5.692,20.013,8.909,25.271,10.823,24.99,1.378-.2,2.042-3.191,2.782-6.535a43.583,43.583,0,0,0-.383-19.987c3.063-3.421,6.1-6.867,9.164-10.287C724.957,968.108,722.354,966.116,719.724,964.1Z" transform="translate(-696.859 -909.473)"/><path class="c" d="M677.5,774.094c3.038,2.348,5.948,1.506,11.972,2.527a46.479,46.479,0,0,1,17.026,6.611q-9.8,11.487-19.553,24.275c-1.557,2.068-3.114,4.135-4.62,6.2A47.644,47.644,0,0,1,691.1,816.7a46.984,46.984,0,0,1,7.862,4.493c9.725-8.475,18.4-16.669,26.139-24.4,3.574-3.574,8.628-9.036,9.419-16.771a9.834,9.834,0,0,0,.051-1.2c-.179-12.84-16.337-22.131-26.164-25.552-10.747-3.727-29.228-5.743-34.384,3.165C670.987,761.688,672.774,770.443,677.5,774.094Z" transform="translate(-672.525 -750.099)"/><path class="d" d="M724.493,793.8a43.767,43.767,0,0,1-3.676,14.5c-.842.332-1.659.664-2.5,1,5.488,2.17,11,4.339,16.49,6.509q-6.126,7.007-12.329,14.678-6.394,7.888-12.176,15.494c2.731.893,5.437,1.787,8.168,2.655q14.665-16.158,29.33-32.342a13.1,13.1,0,0,0,.664-6.841C747.058,801.586,737.434,795.178,724.493,793.8Z" transform="translate(-700.657 -782.645)"/><path class="e" d="M735.35,879.8c.893,1.353,1.761,2.731,2.655,4.084q-11.41,13.746-22.82,27.466c-1.353-.357-2.731-.74-4.084-1.1,4.875-6.688,10.134-13.554,15.826-20.472Q731.176,884.612,735.35,879.8Z" transform="translate(-701.253 -846.692)"/></g><g transform="translate(294.636 226.262)"><path class="b" d="M700.642,926.1c7.53,1.378,15.086,2.731,22.616,4.11,8.7,18.991,9.674,25.118,8.041,26.164-1.174.74-3.625-1.1-6.356-3.165a43.745,43.745,0,0,1-12.712-15.52c-4.544-.613-9.087-1.251-13.631-1.864C699.264,932.584,699.953,929.342,700.642,926.1Z" transform="translate(-643.546 -880.644)"/><path class="c" d="M524.5,751.184c-13.733,4.033-22.106,12.406-27.492,17.919-7.275,7.479-16.209,16.643-13.631,23.407,1.327,3.446,5.361,5.565,24.148,8.832,14.193,2.476,26.5,3.8,36.094,4.544,1.2-4.391,2.4-8.756,3.574-13.146q-14.473-4.671-28.921-9.317c5.922-1.251,12.15-2.731,18.634-4.544q7.39-2.068,14.09-4.314c4.135-8.347,5.029-17.358.715-22.463C545.686,744.956,532.183,748.912,524.5,751.184Z" transform="translate(-482.923 -748.025)"/><path class="d" d="M612.588,795a35.757,35.757,0,0,1-1.736,9.343,37.247,37.247,0,0,1-2.348,5.616c-.689.051-1.378.128-2.068.179q-8.73,2.872-18.583,5.412c-4.237,1.1-8.373,2.042-12.38,2.91q14.512,4.556,29.023,9.087-.306,1.57-.766,3.293c-.357,1.327-.766,2.553-1.149,3.676l-40.051-9.879a9.991,9.991,0,0,1-2.323-6.969c.332-3.854,4.008-6.586,8.7-9.087C582.493,801.382,605.262,796.506,612.588,795Z" transform="translate(-540.457 -783.009)"/><path class="f" d="M530.7,993.8" transform="translate(-518.504 -931.063)"/><path class="e" d="M593.2,887.362c2.425-.179,4.875-.357,7.3-.562q14.282,4.748,28.564,9.521c-.408,1.506-.817,3.038-1.225,4.544Q610.532,894.088,593.2,887.362Z" transform="translate(-565.05 -851.376)"/></g><g transform="translate(332.613 165.021)"><path class="g" d="M631.7,514.667a47.491,47.491,0,0,1,19.068-6.3,48.434,48.434,0,0,1,27.7,5.565c-.74,10.032-1.889,18.047-2.808,23.561-1.1,6.586-1.991,10.236-2.4,16.286a84.892,84.892,0,0,0,.715,17.894,60.77,60.77,0,0,1-38.136-.715,89.02,89.02,0,0,0,.2-21.314c-.638-5.488-1.506-8.168-2.553-14.805A145.631,145.631,0,0,1,631.7,514.667Z" transform="translate(-631.7 -508.109)"/><path class="h" d="M683.672,514.372a56.217,56.217,0,0,1,1.557,7.837,64.538,64.538,0,0,1-2.144,24.965c-2.2,7.99-4.518,16.439-12.125,23.382a33.375,33.375,0,0,1-6.56,4.7,61.235,61.235,0,0,0,33.516-.715c-.255-1.914-.587-4.8-.715-8.271-.1-3.038-.1-7.888,1.991-21.544,1.659-10.747,2.833-15.367,3.421-25.092.077-1.123.1-2.068.153-2.706a36.575,36.575,0,0,0-7.275-3.267,35.026,35.026,0,0,0-7.275-1.557Z" transform="translate(-656.053 -511.081)"/><path class="i" d="M712.229,547.3a140.617,140.617,0,0,1-4.8,19.17c-4.339,13.274-7.377,22.208-15.571,28.743A35.006,35.006,0,0,1,678.1,601.8a48.642,48.642,0,0,0,14.218,1.787A50.023,50.023,0,0,0,708.2,600.6a74.007,74.007,0,0,1-.893-13.478c.179-7.377,1.379-11.819,2.706-19.911C710.748,562.463,711.693,555.673,712.229,547.3Z" transform="translate(-666.256 -537.296)"/></g><g transform="translate(313.196 171.451)"><path class="g" d="M574.9,533.3a44.74,44.74,0,0,0-11.308,11.308c-8.4,12.2-8.168,25.143-7.837,29.917a48.074,48.074,0,0,0,8.755,14.78c2.68,3.089,6.611,7.53,13.325,10.389a30.233,30.233,0,0,0,5.641,1.812c1.225-1.1,2.425-2.2,3.65-3.293-3.931-4.595-7.888-9.419-11.844-14.4q-4.556-5.705-8.756-11.308a31.88,31.88,0,0,1,4.186-14.78,31.39,31.39,0,0,1,6.024-7.479Q575.814,541.788,574.9,533.3Z" transform="translate(-555.631 -533.3)"/><path class="j" d="M589.485,555.6A63.337,63.337,0,0,0,576.9,576.71c-3.038,8.577-2.4,13.069-1.94,15.214a24.414,24.414,0,0,0,4.314,8.96,52.5,52.5,0,0,0,19.068,16.235c.944-.919,1.889-1.812,2.833-2.731q-4.556-5.131-9.189-10.772-6.088-7.39-11.334-14.524a32.378,32.378,0,0,1,10.108-22.361C590.3,563.028,589.893,559.327,589.485,555.6Z" transform="translate(-569.736 -549.908)"/><path class="k" d="M598.3,688.1a38.333,38.333,0,0,0,3.4,10.9,39.341,39.341,0,0,0,14.754,16l2.042-1.812Q608.383,700.633,598.3,688.1Z" transform="translate(-587.408 -648.585)"/></g><g transform="translate(365.874 170.992)"><path class="g" d="M776.333,531.5a47.707,47.707,0,0,1,12.687,11.1,42.025,42.025,0,0,1,8.807,29.381A46.833,46.833,0,0,1,788,586.509a40.183,40.183,0,0,1-14.958,10.21,39.24,39.24,0,0,1-6.356,1.787c-1.353-1.072-2.731-2.144-4.084-3.216,4.391-4.518,8.858-9.24,13.3-14.142q5.092-5.629,9.828-11.1a28.48,28.48,0,0,0-4.7-14.524,32.226,32.226,0,0,0-6.764-7.352C774.98,542.6,775.669,537.065,776.333,531.5Z" transform="translate(-762.447 -531.5)"/><path class="k" d="M776.229,555.8a59.453,59.453,0,0,1,11.1,16.413c1.634,3.6,4.288,9.445,4.339,14.958.179,16.771-23.561,28.309-24.939,28.972-1.353-.868-2.68-1.71-4.033-2.578q11.525-12.635,23.025-25.271a30.816,30.816,0,0,0-3.854-13.35,30.264,30.264,0,0,0-7.734-9.011C774.85,562.564,775.54,559.195,776.229,555.8Z" transform="translate(-762.521 -549.597)"/><path class="l" d="M785.459,683.4a35.834,35.834,0,0,1-2.017,7.147c-4.493,11.334-13.58,17.536-18.175,20.191-1.1-.715-2.17-1.429-3.267-2.144Q773.716,696,785.459,683.4Z" transform="translate(-762 -644.626)"/></g><g transform="translate(322.862 211.425)"><rect class="g" width="62.769" height="39.744" transform="translate(0 0.23)"/><g transform="translate(25.399 13.611)"><path class="m" d="M698.081,753.5c-3.318.408-4.927-3.625-4.059-6.3a5.087,5.087,0,0,1,6.535-2.987,5.028,5.028,0,1,1-4.161,9.138c-.434-.2-.842.459-.383.664a6.066,6.066,0,0,0,6.867-1.1,5.841,5.841,0,0,0,.919-6.713c-2.5-4.952-10.236-3.369-10.772,2.068-.281,2.91,1.812,6.407,5.054,6.024.485-.077.485-.842,0-.791Z" transform="translate(-693.001 -743.223)"/></g><path class="h" d="M669.565,690.1c8.5,2.961,14.295,10.542,14.473,18.685C684.268,719,675.691,728.6,664,729.566l44.671.383q-.077-19.987-.128-39.949Q689.054,690,669.565,690.1Z" transform="translate(-646.004 -689.975)"/><path class="n" d="M762.143,689.9a65.811,65.811,0,0,1-3.191,18.609c-1.991,6.05-3.42,10.466-7.53,14.371-5.59,5.361-12.559,6.356-15.622,6.611q13.057.115,26.113.255.038-11.372.128-22.769C762.041,701.285,762.092,695.592,762.143,689.9Z" transform="translate(-699.476 -689.9)"/></g><g transform="translate(331.398 114.885)"><path class="g" d="M705.551,448.1c-1.4,1.71-.051,3.8-.306,9.394a34.834,34.834,0,0,1-.945,6.535,15.359,15.359,0,0,0,6.05,1.43,15.54,15.54,0,0,0,7.173-1.583,20.665,20.665,0,0,1-1.761-5.105c-1.149-5.718.893-8.4-.791-10.517C713,445.8,707.44,445.776,705.551,448.1Z" transform="translate(-684.552 -412.005)"/><path class="g" d="M660.3,327.3a16.4,16.4,0,0,0-.638,9.47c-.153.026-3.14.664-3.957,2.961-.817,2.323.868,5.616,4.391,6.688,1.276,3.114,4.365,9.138,10.874,12.431a20.27,20.27,0,0,0,3.191,1.276,25.21,25.21,0,0,0,3.676-1.761,25.86,25.86,0,0,0,7.658-6.688,23.5,23.5,0,0,0,3.548-6.892,4.115,4.115,0,0,0,2.527-.332,5.06,5.06,0,0,0,1.761-6.892,5.163,5.163,0,0,0-4.059-1.966,14.619,14.619,0,0,0-16.515-18.3C663.927,318.447,660.456,326.9,660.3,327.3Z" transform="translate(-648.213 -315.767)"/><g transform="translate(20.491 42.138)"><path class="m" d="M707.388,477.5c1.557.919,3.267,2.348,5.182,2.2a9.077,9.077,0,0,0,4.544-2.017c.383-.306-.153-.842-.536-.536a7.889,7.889,0,0,1-4.416,1.812c-1.557-.026-3.14-1.327-4.416-2.119-.383-.255-.766.408-.357.664Z" transform="translate(-707.213 -476.775)"/></g><g transform="translate(20.446 42.23)"><path class="m" d="M707.156,478.1c1.455,1.251,3.114,2.655,5.156,2.553a8.031,8.031,0,0,0,5.156-2.859c.332-.357-.2-.893-.536-.536a7.514,7.514,0,0,1-4.442,2.6c-1.914.179-3.446-1.123-4.8-2.3-.357-.332-.893.2-.536.536Z" transform="translate(-707.038 -477.138)"/></g><g transform="translate(20.781 42.657)"><path class="m" d="M709.1,479.5h0a.392.392,0,0,0-.613-.1l-.026.026a.37.37,0,0,0,0,.536c2.808,2.68,7.964,3.548,9.981-.562.2-.434-.434-.842-.664-.383-1.787,3.676-6.3,2.782-8.755.408v.536l.026-.026-.613-.077v.026c.255.408.919.026.664-.383Z" transform="translate(-708.35 -478.808)"/></g><g transform="translate(24.435 19.346)"><path class="m" d="M722.825,387.873a51.109,51.109,0,0,0,.51,12.329.348.348,0,0,0,.459.255,3.962,3.962,0,0,0,2.246-1.812.383.383,0,0,0-.664-.383,3.072,3.072,0,0,1-1.787,1.455c.153.077.306.179.459.255a49.432,49.432,0,0,1-.485-12.125c.077-.485-.689-.485-.74.026Z" transform="translate(-722.663 -387.487)"/></g><path class="o" d="M699.154,397.876c.051.23.434,1.659,0,1.889s-1.659-.689-2.042-1.889c-.306-1.021-.051-2.3.434-2.4C698.056,395.349,698.848,396.753,699.154,397.876Z" transform="translate(-679.1 -374.085)"/><path class="o" d="M750.754,397.876c.051.23.434,1.659,0,1.889s-1.659-.689-2.042-1.889c-.306-1.021-.051-2.3.434-2.4C749.656,395.349,750.448,396.753,750.754,397.876Z" transform="translate(-717.529 -374.085)"/><g transform="translate(23.472 32.238)"><path class="m" d="M719.1,441.184c3.114,1.327,5.948-.536,8.245-2.553.383-.332-.179-.868-.536-.536-1.991,1.736-4.544,3.6-7.3,2.425-.485-.179-.868.485-.408.664Z" transform="translate(-718.891 -437.991)"/></g><g transform="translate(32.3 27.084)"><path class="m" d="M753.839,418.566a.383.383,0,0,0,0-.766.383.383,0,0,0,0,.766Z" transform="translate(-753.475 -417.8)"/></g><g transform="translate(34.846 25.692)"><path class="m" d="M764.1,413.077l.077-.077a.379.379,0,1,0-.536-.536l-.077.077a.379.379,0,0,0,.536.536Z" transform="translate(-763.45 -412.35)"/></g><g transform="translate(34.272 27.518)"><path class="m" d="M761.583,420.266h.077a.383.383,0,0,0,0-.766h-.077a.393.393,0,0,0-.383.383.376.376,0,0,0,.383.383Z" transform="translate(-761.2 -419.5)"/></g><g transform="translate(16.366 17.837)"><path class="m" d="M691.728,382.959a2.655,2.655,0,0,1,3.369-.051c.383.306.919-.23.536-.536a3.442,3.442,0,0,0-4.467.051c-.357.306.2.842.562.536Z" transform="translate(-691.052 -381.575)"/></g><g transform="translate(28.831 17.296)"><path class="m" d="M740.552,381.1a3.477,3.477,0,0,1,3.957-.459c.434.23.817-.434.383-.664a4.207,4.207,0,0,0-4.875.587c-.383.332.153.868.536.536Z" transform="translate(-739.884 -379.458)"/></g><g transform="translate(16.882 27.007)"><path class="m" d="M693.439,418.266a.383.383,0,0,0,0-.766.383.383,0,0,0,0,.766Z" transform="translate(-693.075 -417.5)"/></g><g transform="translate(19.588 26.65)"><path class="m" d="M704.039,416.866a.383.383,0,0,0,0-.766.383.383,0,0,0,0,.766Z" transform="translate(-703.675 -416.1)"/></g><g transform="translate(18.407 27.888)"><path class="m" d="M699.241,421.065l-.077.077a.379.379,0,1,0,.536.536l.077-.077a.379.379,0,0,0-.536-.536Z" transform="translate(-699.05 -420.95)"/></g><path class="p" d="M643.189,314.941a18.859,18.859,0,0,0-7.147,7.249,18.573,18.573,0,0,0-2.144,9.9,58.084,58.084,0,0,0-6.228,16.669c-1.327,6.407-.613,8.755.306,10.313,2.246,3.829,6.765,4.773,7.862,5a15.052,15.052,0,0,0,11.155-2.348,16.472,16.472,0,0,0,.715-3.063,15.763,15.763,0,0,0-.1-5,26.34,26.34,0,0,1-8.271-11.844c-2.246-.23-3.931-1.761-4.084-3.472-.153-1.608.97-3.676,2.451-3.676A2.9,2.9,0,0,1,639.743,336a10.8,10.8,0,0,0,3.063-2.655c1.506-1.914,1.761-3.625,2.451-5.412a17.156,17.156,0,0,1,4.7-6.637c2.655.944,4.773,1.863,6.228,2.553,4.671,2.17,7.326,3.446,9.394,6.228a13.635,13.635,0,0,1,2.042,3.982c2.374-1.812,3.344-1.327,3.548-1.225,1.506.842,1.455,5.463-.893,6.739a3.639,3.639,0,0,1-2.553.2,24.2,24.2,0,0,1-6.126,10.517,22.244,22.244,0,0,1-3.676,2.961,13.817,13.817,0,0,0,.1,3.778,12.94,12.94,0,0,0,1.021,3.369c6.2,4.084,13.912,3.344,18.1-1.047,3.727-3.931,3.727-9.879,2.323-13.937a15.175,15.175,0,0,0-4.978-6.892c.332-1.429,2.17-9.9-3.165-17.69a20.963,20.963,0,0,0-12.176-8.577A21.34,21.34,0,0,0,643.189,314.941Z" transform="translate(-626.939 -311.699)"/><path class="i" d="M735.6,365.5a18.1,18.1,0,0,1,3.905,8.7c1.047,7.3-3.191,13.223-5.335,16.26a31.521,31.521,0,0,1-4.875,5.386c1.123,3.012,2.221,6,3.344,9.011l3.446-1.149a17.36,17.36,0,0,1-1.532-3.548,18.168,18.168,0,0,1-.766-6.331,27.154,27.154,0,0,0,4.62-4.135,27.755,27.755,0,0,0,5.565-9.726,3.914,3.914,0,0,0,2.655-.357c2.2-1.251,1.838-4.365,1.812-4.569-.077-.664-.23-1.736-1-2.17-.893-.485-2.374-.026-3.548,1.353a13.107,13.107,0,0,0-4.135-6.433A12.812,12.812,0,0,0,735.6,365.5Z" transform="translate(-703.171 -351.767)"/><path class="q" d="M718.221,389.9c-.153-.026-.664,2.2-2.221,12h2.68c-.179-1.3-.383-3.191-.485-5.488C718.068,392.477,718.374,389.925,718.221,389.9Z" transform="translate(-693.266 -369.938)"/><path class="r" d="M763.928,417.719c-.434.255,1.2,2.451.97,5.718a6.764,6.764,0,0,1-2.068,4.9c-.128.1-2.859,2.348-5.565.919a4.952,4.952,0,0,1-2.527-4.569,20.051,20.051,0,0,1-3.982,5.156,21.063,21.063,0,0,1-3.472,2.629,14.68,14.68,0,0,0,.332,4.391,15.938,15.938,0,0,0,.791,2.425,16.367,16.367,0,0,0,3.5,1.736c.97.332,6.3,2.2,11.512-.383a10.976,10.976,0,0,0,4.442-3.752,10.717,10.717,0,0,0,1.327-2.961,16.453,16.453,0,0,0-1.047-11.41C766.736,419.685,764.465,417.413,763.928,417.719Z" transform="translate(-716.536 -390.635)"/><path class="s" d="M639.365,430.1c-.23.026.281,2.119-.281,4.186-.408,1.532-1.71,4.033-3.931,4.544-2.323.511-5.207-1.2-6.535-4.391a18.2,18.2,0,0,0-1.557,6.509,11.944,11.944,0,0,0,.74,5.82c2.068,4.391,8.143,6.1,12.661,5.692a14.637,14.637,0,0,0,6.509-2.246,18.841,18.841,0,0,0,.817-3.114,17.983,17.983,0,0,0,.077-5.207,21.352,21.352,0,0,1-4.263-4.059,18.962,18.962,0,0,1-3.727-6.56C639.748,430.941,639.518,430.073,639.365,430.1Z" transform="translate(-626.995 -399.875)"/></g></g></svg>