<svg xmlns="http://www.w3.org/2000/svg" xmlns:xlink="http://www.w3.org/1999/xlink" width="54.594" height="20.374" viewBox="0 0 54.594 20.374"><defs><style>.a{fill:url(#a);}</style><linearGradient id="a" x1="0.024" y1="0.5" x2="1" y2="0.5" gradientUnits="objectBoundingBox"><stop offset="0" stop-color="#f77657"/><stop offset="0.473" stop-color="#5765f7"/><stop offset="1" stop-color="#af3cba"/></linearGradient></defs><path class="a" d="M0,9.356a19.786,19.786,0,0,1,3.444.034,5.668,5.668,0,0,0,5.936-2.1c1.882-2.29,3.1-2.124,5.135.1.691.755,1.9,1.75,2.619,1.575.781-.192,1.423-1.543,1.835-2.512.652-1.533.92-3.237,1.635-4.733A3.221,3.221,0,0,1,22.67,0c.6-.06,1.572.9,1.922,1.625.8,1.666,1.291,3.482,1.975,5.21,1.052,2.658,2.261,2.809,4.07.552.814-1.015,1.543-2.11,2.437-3.047a1.685,1.685,0,0,1,2.944.294c.713,1.088,1.274,2.277,2,3.354,1.157,1.709,2.422,1.717,3.731.1.078-.1.142-.2.215-.3,1.83-2.464,2.443-2.375,4.4.054a5.5,5.5,0,0,0,2.91,1.634c.969.225,2.074-.206,3.12-.22a6.011,6.011,0,0,1,2.077.376c.144.052.152,1.1.044,1.134a6.76,6.76,0,0,1-2.065.351c-.736,0-1.468-.223-2.208-.288a4.1,4.1,0,0,0-4.208,2.121c-1.142,1.884-2.427,1.886-3.791.164-.269-.341-.485-.725-.773-1.048-1.293-1.454-2.349-1.421-3.424.212-.679,1.032-1.138,2.206-1.783,3.263-.982,1.608-1.92,1.74-3.276.407-.79-.777-1.339-1.8-2.145-2.562-.773-.727-1.8-1.8-2.6-1.707-.759.09-1.546,1.4-1.994,2.334-.722,1.5-1.077,3.174-1.784,4.683-.332.71-1.188,1.738-1.686,1.675a3.1,3.1,0,0,1-1.979-1.638c-.758-1.615-1.155-3.4-1.8-5.068-1.147-2.953-2.424-3.149-4.474-.758-2.119,2.472-3.452,2.583-5.347.066-1.742-2.314-3.827-2.364-6.293-1.691C.952,11.811.665,11.581,0,9.356" transform="translate(0 0)"/></svg>